<?xml version="1.0" standalone="no"?>
<!DOCTYPE svg PUBLIC "-//W3C//DTD SVG 20010904//EN"
 "http://www.w3.org/TR/2001/REC-SVG-20010904/DTD/svg10.dtd">
<svg version="1.0" xmlns="http://www.w3.org/2000/svg"
 width="600.000000pt" height="600.000000pt" viewBox="0 0 600.000000 600.000000"
 preserveAspectRatio="xMidYMid meet">
<metadata>
Created by potrace 1.14, written by Peter Selinger 2001-2017
</metadata>
<g transform="translate(0.000000,600.000000) scale(0.100000,-0.100000)"
fill="#000000" stroke="none">
<path d="M2929 5866 c-2 -2 -42 -7 -89 -11 -47 -4 -94 -9 -105 -11 -11 -2 -40
-7 -65 -10 -25 -3 -53 -8 -62 -10 -20 -6 -63 -14 -93 -18 -61 -8 -342 -93
-362 -109 -7 -5 -13 -7 -13 -4 0 12 -190 -69 -325 -139 -165 -84 -262 -145
-410 -255 -91 -67 -99 -74 -193 -156 -119 -105 -332 -330 -332 -352 0 -5 -4
-11 -9 -13 -12 -4 -151 -195 -151 -206 0 -5 -9 -17 -20 -27 -22 -20 -36 -17
-190 32 -90 29 -234 67 -311 82 -113 23 -166 19 -192 -14 -11 -14 1 -89 23
-138 60 -140 161 -347 184 -377 6 -8 20 -31 30 -50 11 -19 46 -76 78 -126 51
-81 57 -95 48 -118 -5 -14 -7 -26 -4 -26 4 0 1 -7 -6 -15 -7 -8 -10 -15 -7
-15 3 0 -4 -28 -14 -62 -11 -34 -22 -78 -26 -98 -3 -19 -6 -39 -8 -45 -2 -11
-11 -61 -20 -110 -3 -16 -8 -46 -10 -65 -3 -19 -7 -48 -9 -65 -23 -148 -24
-556 -2 -671 2 -12 7 -45 11 -75 3 -30 9 -67 12 -84 3 -16 7 -39 8 -50 4 -31
56 -248 65 -270 7 -17 31 -88 35 -105 5 -18 74 -197 92 -240 39 -91 129 -260
185 -349 131 -211 245 -355 414 -526 74 -75 206 -191 294 -258 69 -53 130 -97
135 -97 3 0 27 -15 53 -33 26 -18 54 -36 62 -40 8 -4 33 -18 55 -32 47 -30
296 -155 307 -155 5 0 27 -8 51 -19 23 -10 58 -24 77 -31 19 -7 44 -16 55 -20
19 -8 94 -33 105 -35 3 -1 30 -8 60 -17 30 -10 66 -19 80 -22 14 -3 42 -10 63
-15 20 -5 37 -7 37 -5 0 3 8 1 17 -5 10 -5 38 -12 63 -15 25 -4 72 -11 105
-16 126 -20 197 -24 415 -24 202 -1 305 4 380 18 14 3 45 7 70 10 40 6 205 39
253 51 9 3 25 7 35 10 74 19 131 37 222 69 58 21 115 40 128 43 12 3 22 9 22
13 0 4 12 11 27 15 15 3 77 31 138 62 60 31 125 63 143 71 17 9 32 20 32 24 0
4 6 8 13 8 10 1 109 61 142 87 6 4 29 21 53 36 23 15 50 34 60 42 9 7 52 41
95 75 149 119 374 349 474 485 12 17 37 51 57 78 20 26 36 52 36 57 0 6 3 10
8 10 4 0 18 20 32 45 14 25 28 45 32 45 5 0 8 5 8 10 0 6 11 27 24 48 42 67
123 228 169 339 55 131 95 248 133 388 2 6 5 20 8 33 3 13 7 31 10 40 3 9 8
32 11 51 3 19 7 37 9 40 2 3 7 26 10 51 3 25 8 56 11 70 3 14 8 47 11 74 3 26
9 78 13 115 8 64 6 475 -2 536 -6 40 -21 157 -22 170 -2 13 -16 94 -22 120
-14 67 -15 72 -41 170 -10 39 -21 77 -24 85 -3 8 -20 60 -38 115 -44 132 -161
398 -181 411 -5 3 -9 14 -9 25 0 10 -3 19 -7 19 -5 0 -21 26 -38 58 -16 31
-33 59 -36 62 -5 5 -90 130 -114 170 -5 8 -16 22 -22 30 -7 8 -34 42 -60 75
-76 96 -101 123 -223 245 -115 114 -151 147 -225 205 -21 17 -43 35 -49 40 -6
6 -34 26 -61 45 -28 19 -51 38 -53 42 -2 4 -9 8 -16 8 -7 0 -21 9 -31 20 -10
11 -22 20 -26 20 -5 0 -35 17 -68 39 -33 21 -90 53 -128 72 -37 19 -70 36 -73
39 -30 32 -454 193 -560 214 -14 3 -50 11 -80 19 -30 9 -73 18 -95 21 -22 4
-47 9 -55 11 -8 3 -31 7 -50 9 -35 5 -87 12 -165 22 -47 7 -480 15 -486 10z"/>
</g>
</svg>
