<svg xmlns="http://www.w3.org/2000/svg" viewBox="0 0 111 111"><defs><style>.cls-1{fill:#e0e4d6;}.cls-2{fill:#262d17;}.cls-3{fill:#4d5b2f;}</style></defs><title>Asset 4</title><g id="Layer_2" data-name="Layer 2"><g id="Layer_1-2" data-name="Layer 1"><ellipse class="cls-1" cx="55.5" cy="55.5" rx="54.11" ry="54.12"/><path class="cls-2" d="M55.5,0A55.5,55.5,0,1,0,111,55.5,55.5,55.5,0,0,0,55.5,0Zm0,105.3a49.8,49.8,0,1,1,49.81-49.8A49.86,49.86,0,0,1,55.5,105.3Z"/><path class="cls-3" d="M54.56,78.67a24.07,24.07,0,0,1-4.22-6.36c-4.14-9.38-3.36-18.46,2-27.12C56.89,37.8,63.7,33.35,71.84,30.78a53.37,53.37,0,0,1,18.51-2.12,3.74,3.74,0,0,1,.44,0s.09.06.2.14c-.54.89-1.1,1.77-1.64,2.66a30.07,30.07,0,0,0-4.53,16.82c.1,3.11.5,6.19.74,9.29a30.39,30.39,0,0,1-2,14.4,15.19,15.19,0,0,1-8.7,8.13,30,30,0,0,1-11.07,2.14c-1.26,0-2.52,0-3.78,0-.77,0-1-.29-1-1a58.81,58.81,0,0,1,2.16-14.48A70.7,70.7,0,0,1,72.47,43.46c.24-.33.45-.68.72-1.09-1.87.81-9.47,11.49-12,16.65A82.86,82.86,0,0,0,54.56,78.67Z"/><path class="cls-3" d="M52.77,80.69a26,26,0,0,1-9.55,1.72,12.93,12.93,0,0,1-9.34-3.85A24.31,24.31,0,0,1,29,71.18c-1.38-3.18-2.18-6.56-3.3-9.83a25.71,25.71,0,0,0-8.27-11.9c-1.08-.87-2.21-1.68-3.48-2.57,1.24-.56,2.35-1.11,3.5-1.56a40.79,40.79,0,0,1,18.39-3.14,29.15,29.15,0,0,1,11.88,3.51c.28.15.54.34.91.56a33,33,0,0,0-3.52,13A56.32,56.32,0,0,0,34,52.53c1.42,1,2.86,2,4.26,3a59.83,59.83,0,0,1,6.31,5.33,1.68,1.68,0,0,1,.62,1.2,29.25,29.25,0,0,0,7.31,18.25C52.55,80.37,52.61,80.47,52.77,80.69Z"/></g></g></svg>