<svg xmlns="http://www.w3.org/2000/svg" viewBox="0 0 111 111"><defs><style>.cls-1{fill:#e0e4d6;}.cls-2{fill:#262d17;}.cls-3{fill:#4d5b2f;}</style></defs><title>Asset 5</title><g id="Layer_2" data-name="Layer 2"><g id="Layer_1-2" data-name="Layer 1"><ellipse class="cls-1" cx="55.5" cy="55.5" rx="54.11" ry="54.12"/><path class="cls-2" d="M55.5,0A55.5,55.5,0,1,0,111,55.5,55.5,55.5,0,0,0,55.5,0Zm0,105.3a49.8,49.8,0,1,1,49.8-49.8A49.86,49.86,0,0,1,55.5,105.3Z"/><path class="cls-3" d="M85.78,57.38c1.27,4-2.07,8.68-7.86,9.55C71.77,67.85,62.7,71,60.17,76.2a.27.27,0,0,1-.51,0C57.13,71,68.29,57,73.84,54.15,79.06,51.5,84.5,53.39,85.78,57.38Z"/><path class="cls-3" d="M27.23,63.88c-.06,3.54,3.67,6.79,8.43,6.42,5.06-.4,12.94.54,16.14,4.32.16.19.37.14.4-.1C53,69.79,40.89,60.25,35.86,59,31.12,57.76,27.29,60.34,27.23,63.88Z"/><path class="cls-3" d="M27.22,47.88c-.66,2.06,1.07,4.48,4.06,4.93,3.18.48,7.86,2.13,9.16,4.78a.14.14,0,0,0,.27,0c1.31-2.66-4.46-9.93-7.32-11.38C30.69,44.84,27.88,45.82,27.22,47.88Z"/><path class="cls-3" d="M85.73,63.62a.21.21,0,0,0-.24.35c1.84,1.57,2.86,3.31,2.86,5.14,0,6.95-14.71,12.58-32.85,12.58S22.65,76.05,22.65,69.1c0-1.83,1-3.57,2.86-5.14a.21.21,0,0,0-.24-.35C21.19,66,18.79,68.91,18.79,72c0,8.2,16.43,14.84,36.71,14.84S92.21,80.23,92.21,72C92.21,68.91,89.81,66,85.73,63.62Z"/><path class="cls-3" d="M55.5,60.19c-9,0-16.39-7.08-14.38-16,2.13-9.44,8.4-19.93,13.83-27.84a.67.67,0,0,1,1.1,0c5.43,7.92,11.7,18.4,13.83,27.84C71.89,53.11,64.48,60.19,55.5,60.19Z"/></g></g></svg>