<svg xmlns="http://www.w3.org/2000/svg" viewBox="0 0 111 111"><defs><style>.cls-1{fill:#e0e4d6;}.cls-2{fill:#4d5b2f;}.cls-3{fill:#262d17;}</style></defs><title>Asset 6</title><g id="Layer_2" data-name="Layer 2"><g id="Layer_1-2" data-name="Layer 1"><circle class="cls-1" cx="55.5" cy="55.5" r="54.08"/><path class="cls-2" d="M56,91.36a.29.29,0,0,1-.19-.06A.29.29,0,0,1,55.7,91c.08-.35.16-.7.24-1,.19-.81.38-1.58.51-2.38a11.52,11.52,0,0,0-1.55-7.95c-.61-1-1.3-2.06-2-3-.52-.77-1-1.54-1.53-2.33A16.88,16.88,0,0,1,48.86,61.6a23.84,23.84,0,0,1,1.88-5.33c.31-.67.63-1.33,1-2a47.27,47.27,0,0,0,2.22-5.07,14.33,14.33,0,0,0,.86-6.85,17.89,17.89,0,0,0-1.61-4.82l-.18-.4A24,24,0,0,1,51.1,31.9a11.83,11.83,0,0,1,2.14-9.39,20.83,20.83,0,0,1,2-2.44l.24-.23.16-.15a.28.28,0,0,1,.47.27l-.23.93c-.16.65-.31,1.26-.45,1.88a11.22,11.22,0,0,0-.06,5.75A14.43,14.43,0,0,0,57.82,33l.28.38A29.77,29.77,0,0,1,61.62,39a17,17,0,0,1,.93,10.65,28.43,28.43,0,0,1-2.66,7.27l-.33.63a41.16,41.16,0,0,0-1.94,4.09,12.86,12.86,0,0,0,.2,9.81c.2.49.4,1,.61,1.48a39.1,39.1,0,0,1,1.74,4.77,12.77,12.77,0,0,1-2.51,12,17.34,17.34,0,0,1-1.34,1.47.88.88,0,0,1-.18.1Z"/><path class="cls-2" d="M40.11,83.76a.28.28,0,0,1-.28-.34c.08-.38.17-.74.25-1.1a14.66,14.66,0,0,0,.4-2.09A8.66,8.66,0,0,0,39,74.72c-.35-.57-.72-1.12-1.09-1.67A28.33,28.33,0,0,1,36,70a12,12,0,0,1-.61-9.87c.44-1.2,1-2.35,1.53-3.47.36-.75.72-1.5,1.05-2.26a15.09,15.09,0,0,0,1.19-4.1,9.16,9.16,0,0,0-.8-4.82c-.17-.39-.34-.78-.52-1.16a23.69,23.69,0,0,1-1-2.5,8.6,8.6,0,0,1,.08-6.12,12.21,12.21,0,0,1,2.64-3.86.54.54,0,0,1,.41-.22.37.37,0,0,1,.23.12.32.32,0,0,1,.08.23s-.42,1.77-.54,2.29a8.12,8.12,0,0,0,1.76,7,23,23,0,0,1,2.68,4.12A11.87,11.87,0,0,1,45.26,51a18.52,18.52,0,0,1-2.32,7.81l-.23.44A19,19,0,0,0,41,63.22a9.4,9.4,0,0,0,.53,6l.42,1c.36.87.73,1.76,1,2.67a10,10,0,0,1,.17,6.48,10.44,10.44,0,0,1-2.87,4.29A.28.28,0,0,1,40.11,83.76Z"/><path class="cls-2" d="M71.22,83.75a.28.28,0,0,1-.14,0,.29.29,0,0,1-.14-.31l.36-1.63a8.88,8.88,0,0,0,.23-3.45,10.72,10.72,0,0,0-1.73-4l-.7-1.05a26.54,26.54,0,0,1-2.2-3.67,11.89,11.89,0,0,1-.5-9.11A33.91,33.91,0,0,1,68,56.67c.26-.53.52-1.07.76-1.61a16.41,16.41,0,0,0,1.49-4.85,8.41,8.41,0,0,0-.5-3.93c-.25-.69-.56-1.38-.86-2a24.23,24.23,0,0,1-1-2.41,8.71,8.71,0,0,1,1.28-8.28,14.32,14.32,0,0,1,1.7-2,.28.28,0,0,1,.47.27l-.18.77c-.12.51-.22,1-.34,1.44a7.64,7.64,0,0,0,1.34,6.66l.53.72a26.67,26.67,0,0,1,2.15,3.23,12.39,12.39,0,0,1,1.27,8.16A24.42,24.42,0,0,1,73.43,60a13.31,13.31,0,0,0-1.51,4.17,9.43,9.43,0,0,0,.74,5.06c.17.43.34.86.52,1.28A24.93,24.93,0,0,1,74.39,74a9.29,9.29,0,0,1-1.74,8.35,11.68,11.68,0,0,1-1.24,1.36A.29.29,0,0,1,71.22,83.75Z"/><path class="cls-3" d="M55.5,0A55.5,55.5,0,1,0,111,55.5,55.5,55.5,0,0,0,55.5,0Zm0,5.7A49.61,49.61,0,0,1,89.14,18.81L18.69,89A49.78,49.78,0,0,1,55.5,5.7Zm0,99.61A49.57,49.57,0,0,1,23.22,93.38l70.28-70a49.77,49.77,0,0,1-38,82Z"/></g></g></svg>