<svg xmlns="http://www.w3.org/2000/svg" viewBox="0 0 111 111"><defs><style>.cls-1{fill:#e0e4d6;}.cls-2{fill:#4d5b2f;}.cls-3{fill:#262d17;}</style></defs><title>Asset 7</title><g id="Layer_2" data-name="Layer 2"><g id="Layer_1-2" data-name="Layer 1"><circle class="cls-1" cx="55.5" cy="55.5" r="54.08"/><path class="cls-2" d="M78.7,72.14,64.35,46.62V33.83a4.33,4.33,0,0,0-2.08-8.14H48.73a4.33,4.33,0,0,0-2.08,8.14V46.62L32.3,72.14A8.84,8.84,0,0,0,40,85.32H71A8.84,8.84,0,0,0,78.7,72.14Zm-24.88.43A3.93,3.93,0,1,1,57,68,3.93,3.93,0,0,1,53.82,72.57Zm9,6a2.76,2.76,0,1,1,2.24-3.19A2.76,2.76,0,0,1,62.85,78.58Zm3.33-20.07A22.66,22.66,0,0,0,55.67,61.1a18.59,18.59,0,0,1-8.61,2.13,18.36,18.36,0,0,1-4.64-.6l8.13-14.45a2.08,2.08,0,0,0,.27-1V34.36H51a2.08,2.08,0,0,0,0-4.16H48.73a.17.17,0,1,1,0-.35H62.27a.17.17,0,0,1,0,.35H60a2.08,2.08,0,0,0,0,4.16h.17v12.8a2.09,2.09,0,0,0,.27,1l5.81,10.32Z"/><path class="cls-3" d="M55.5,0A55.5,55.5,0,1,0,111,55.5,55.5,55.5,0,0,0,55.5,0ZM5.69,55.5A49.77,49.77,0,0,1,89.8,19.44L19.32,89.67A49.61,49.61,0,0,1,5.69,55.5ZM55.5,105.3A49.57,49.57,0,0,1,23.92,94L94.09,24.06A49.77,49.77,0,0,1,55.5,105.3Z"/></g></g></svg>