<svg xmlns="http://www.w3.org/2000/svg" viewBox="0 0 300 328.86"><defs><style>.cls-1{fill:#e0e4d6;}.cls-2{fill:#bacca2;}.cls-3{fill:#231f20;}.cls-4{fill:#998a5c;}.cls-5{fill:#62853b;}.cls-6{fill:#4d5b2f;}.cls-7{fill:gray;}.cls-8{fill:#81b609;stroke:#000;stroke-miterlimit:10;}.cls-9{fill:#606060;}</style></defs><title>Asset 8</title><g id="Layer_2" data-name="Layer 2"><g id="Layer_1-2" data-name="Layer 1"><ellipse class="cls-1" cx="140.05" cy="188.84" rx="140.05" ry="140.02"/><path class="cls-2" d="M3.45,158.18a140,140,0,1,0,273.33,0c-40.36-11.51-87-18.09-136.67-18.09S43.81,146.66,3.45,158.18Z"/><path class="cls-3" d="M129.11,221.68c-1.72-9.48-6.72-15.82-16.73-17.22-8.81-1.23-15.23,3.85-20.86,9.93-5.86,6.33-7,15.83-8.3,24-1.3,8-2.93,16.54-1.31,24.59,1.89,9.38,8.88,15.25,17.68,18.23,9.68,3.29,16.07-1.75,21.67-9.49C131.41,257.65,131.34,238.28,129.11,221.68Zm-22.49,37.25c-7.64,0-7.31-14.14-6.45-19.15.48-2.79,3.58-14.54,8.19-13.21C114.48,228.34,114,258.92,106.63,258.92Z"/><path class="cls-3" d="M82.82,207.08c-2-.72-10.94-.27-14.05,4.24-2,2.94-2.43,6.77-3.32,10.13-.61,2.34-1.35,7.67-3.33,9.22-4.86-6.09-7.89-13.52-10.82-20.66-1-2.45-1.36-5.09-3.57-6.76-1.86-1.41-10.09-5.88-12-4.11-3,2.82-.5,15,.79,18.42,2.9,7.71,8.65,13.48,13.4,20,7.15,9.78,4.31,17.53.92,28.4-1.63,5.25-2.13,6.32-3.6,11.59-.77,2.75-2.28,6.42-.28,9.08,2.6,3.47,10.53,9.3,14.31,9.36,6.31.08,7.15-4.95,7.85-10.71,1.16-9.53,3.7-18.65,5-28.06h.09c.79-3.73.55-5,1.81-11.37,1.38-7,3-14.23,4.43-21.22C81,222.36,85.17,208.26,82.82,207.08Z"/><path class="cls-3" d="M183.22,242c-1.24-13.15.59-23.61-6.59-25.36-10.68-2.6-6.37,7.7-5.82,12.78.68,6.25,1.55,12.89,1.65,19.13S169.4,275.23,161.81,274c-6.41-1-5.69-14.42-5.77-19.15-.14-8.81.08-17.64,0-26.45h0c0-3.68.52-7.65.11-11.32-.37-3.23-2.41-3.44-6.72-4.89-4.07-1.37-6.21-2.45-9.85-1.33-3,.92-2.64,9.75-2.74,12-.8,16.84-1.41,31.7,1.31,47.68C140.67,285.5,155,296,169.2,287.49,185,278,182.83,258.22,183.22,242Z"/><path class="cls-3" d="M203.51,253.88c2.87,11.56,10.22,22.14,16.37,32.53,2.84,4.79,6.7,7.19,11.7,3.23,4.09-3.23,8.08-4.29,7.15-12-.88-7-2.87-14.11-3.39-21.12-.37-5-.15-10.13-.11-15.06.07-8.25-.4-16.5.15-24.78.36-5.42.41-14.49-5.7-11.12-4.44,2.45-8.32,1.72-9,7-1.29,9.62,2.08,18.55-.72,28.2-8.25-3-14.59-32.11-25.62-23.26-5.39,4.33-4.59,12.06-4.44,17.91.19,7.35-.57,14.72-.63,22.12-.05,7.7-1,15-1.67,22.63-.47,5.25-1,12.33,5.29,13.64,9.95,2.08,9.64-9.22,9.86-15.77.11-3.37,0-6.75.08-10.14.06-2.36-.05-4.66.09-7a50.06,50.06,0,0,1,.59-6.91"/><path class="cls-4" d="M127.39,73.12C132.75,77,139.51,82.83,139.48,89c0,1.31-.09,2.66-.16,4-.06,1-.13,2.11-.15,3.16-.21,8.35-.4,17.32-.44,26.27,0,4.61.21,9.29.42,13.82.12,2.44.24,5,.32,7.44.07,2.19.22,4.45.37,6.84.53,8.38,1.13,17.76-1.6,25.47-.14,1.46.1,2.63,1.41,2.86,1.93.33,3-1,4-2.47.08-.12.21-.36.39-.69,0-1,.09-1.94.14-2.9.34-6.89.7-14,0-20.89-.45-4.17-1.16-8.37-1.84-12.43-.42-2.5-.85-5.08-1.22-7.63a135.74,135.74,0,0,1-.7-27.71c.79-12.33,4.46-23.13,11.9-35-3.31.72-5.26,3.95-7.15,7.07a22.74,22.74,0,0,1-3.56,4.91.08.08,0,0,1-.06,0h0a.08.08,0,0,1-.06,0c-.78-1.52-.16-3.38.43-5.18a17.91,17.91,0,0,0,.58-2,44.9,44.9,0,0,0,1-7.85c0-.1,0-.23,0-.4.11-4-.07-6.19-.54-6.47a1.65,1.65,0,0,0-.67-.25.82.82,0,0,0-.7.26c-1,1-.89,4.27-.77,5.47.43,4.53.77,11-1.1,14.64a.08.08,0,0,1-.05,0h-.07A62.37,62.37,0,0,0,127.39,73.12Z"/><path class="cls-5" d="M157,67.25c1.54.15,3.1.42,4.61.67,1.1.19,2.23.38,3.35.53.71.09,1.45.18,2.19.25a98,98,0,0,0,16.59,0,120.05,120.05,0,0,0,36.89-8.5c6-2.47,11.91-5.18,17.67-7.8,17.25-7.86,35.09-16,54.71-18.19l.71-.07c1.59-.15,3.24-.3,4.37-1.78-.6-2.08-4.49-3.67-7.07-4.72-.52-.21-1-.4-1.34-.56a79.6,79.6,0,0,0-9.78-3.65,86.85,86.85,0,0,0-16.55-3.23c-1.3-.13-2.63-.23-4-.3-13.42-.74-28.45.36-44.69,3.27a131,131,0,0,0-14.33,3.7c-2.61.78-5.31,1.59-8,2.29l-.19.05c-6.58,1.72-13.39,3.49-19.5,6.7C160.73,42.22,153,51.41,149.15,64a10.85,10.85,0,0,1,4.78-4h0a177.29,177.29,0,0,1,31.53-13.57A195.14,195.14,0,0,1,219.29,39h0a.08.08,0,0,1,0,.15c-1.89,1.54-4.94,2.09-7.64,2.57-.9.16-1.74.31-2.5.49l-3.44.81L200,44.37A179.48,179.48,0,0,0,180.69,50a167.77,167.77,0,0,0-18.12,7.8l-1.7.84c-4.67,2.28-9.5,4.65-11.74,9.39A17.3,17.3,0,0,1,157,67.25Z"/><path class="cls-5" d="M129.82,15.47a15.48,15.48,0,0,1-.32-4c.25-3,1.39-7.94,1.08-8.4-1.08.62-2.11,4-2.79,6.22-.23.74-.42,1.38-.57,1.74-.23.56-.47,1.14-.7,1.7a40.63,40.63,0,0,0-1.89,5.13,27.83,27.83,0,0,0-.18,12.11c1.65,8.83,7.53,17.73,12.72,25.59.71,1.08,1.38,2.09,2,3.1,2.06-10.39-1.41-19.46-5.47-28.61A46,46,0,0,1,129.82,15.47Z"/><path class="cls-5" d="M21.15,25.23c.39.56.74,1.05,1,1.43A113.83,113.83,0,0,0,30.46,38c6.38,7.45,16.06,12.66,23.06,15.71a103.67,103.67,0,0,0,29.11,7.8l4.82.52c8.35.89,16.23,1.73,24.47,4a83.44,83.44,0,0,1,20.4,6.9c-5.77-6.35-13.3-12.27-23-18.09C105,52.27,100.43,50,95.74,47.78c-.89-.43-2-.85-3.09-1.3-3.07-1.21-6.55-2.58-8.23-4.73a.08.08,0,0,1,.07-.13h0a143.39,143.39,0,0,1,26,12.27,134.33,134.33,0,0,1,22.81,17.36c-.25-4-3.92-8.66-6.61-12.06-.48-.61-.94-1.19-1.34-1.72a56.05,56.05,0,0,0-10.59-11.08c-9-6.86-17.9-13.34-28.74-17.26-11.51-4.16-23-5.77-35.24-7.48l-1.77-.25a141.08,141.08,0,0,1-16.8-3.73c-1.41-.38-2.88-.86-4.43-1.37a47.23,47.23,0,0,0-9.68-2.44,16.48,16.48,0,0,0-2.43-.07C15.09,16.55,19,22.19,21.15,25.23Z"/><path class="cls-6" d="M141.94,22.34a40.58,40.58,0,0,0-4.53-9.26,37.39,37.39,0,0,1-2.2-4.15,31.36,31.36,0,0,0-2.54-4.63c-4.41,7.68.91,21.19,3.41,26.66a58.65,58.65,0,0,1,4.48,13,40,40,0,0,1,.58,6.49,38.35,38.35,0,0,0,.57,6.35c2-3.31,2.57-7.15,3.14-10.87l.1-.68C146,38.76,144.64,30.26,141.94,22.34Z"/><path class="cls-7" d="M137.32,101.87c-1.71,0-3.39,0-5,.08-21.65.6-46.65,9.13-64.26,21.75-11.53,8.26-19.58,21-23.83,34.44-3,9.42-4.05,20.7,2.18,29.11,8.74,11.8,26.55,12.63,39.83,12,12.13-.55,24-4.75,36.09-4.41,8,.23,16.52,1.57,23.68,5.11a135.71,135.71,0,0,0,15.67,6.45c1.74.6,5.28,2.07,6.67.11,1.67-2.36-1.81-7.84-3.09-9.69a32.9,32.9,0,0,0-10.9-9.5C135.78,176.82,116,180.64,96,181.62c-8.31.41-17.16-.22-24.95-3.31-3.38-1.34-9.07-4-9.52-8.29,2.37,1.7,4.21,4,6.83,5.35,5.28,2.79,12,3.2,17.77,3.72,8.73.78,17.26.17,26-.57,7.5-.64,15.87-2.08,23.3-.45,2.23-11.89,1.41-25.26-5.58-35.41-4.29-6.22-10.42-12.74-17.2-16.25s-14-3-21.39-2.61c3.12-3.54,14.66-2.09,18.46-.71,4.18,1.52,7.61,4.83,11,7.59,7.55,6.17,13.42,13.47,16.26,22.89q.63,2.09,1.11,4.24c0-1.1,0-2.23,0-3.41-.07-3.52-.22-7.11-.37-10.58-.09-2.13-.18-4.33-.26-6.49-.32-9.64-.41-17.12-.28-24.25q0-1.55.06-3.1C137.21,107.31,137.26,104.6,137.32,101.87Z"/><path class="cls-7" d="M173.49,203.28c-.83-5.66.14-14.42-3-19.34s-8.48-4.53-13.52-5.81c.29,0,3.71-.55,4.27-.57,2-.08,4.49-.38,6.25.92-1.85-6.49.25-12.43,4.17-17.62.95-1.26,2.43-2.48,3-4,1-2.46.6-6,1.27-8.74s5.2-18.42,8.25-18.21c1,.07,4.87,8.19,5.63,9.2,2,2.69,4.5,4.54,7.13,6.62-5.69,1.17-11.25-9.56-12.85-13.31a45.08,45.08,0,0,0-2,16c.09,1.06,2.91,14.12,4,13.69-2.13.81-5-7.37-5.3-8.67-.93-4-.27-8.25-.61-12.34-.88,3.46-2,6.89-2.58,10.4-.34,1.89-.06,5.22-1,6.67-.34.53-2.18,1.37-2.75,1.94a20.92,20.92,0,0,0-4.17,7.06c-3.29,8.64,3.19,15.21,4.32,23.59.59,4.35,0,10.41,2.51,14.17,1.4,2.08,6.16,5.34,8.45,2.45.78-1-2.19-3.8-.44-5,1-.73,5.45,1.91,5.9,2.64,2,3.24-4.65,2-6.82,4.59,9,3.3,13.08-2.14,21.33-3.87,5.89-1.24,10.77-2.52,15.73-6.18,2.17-1.6,5.1-3.16,6.81-5.26s2.13-4.87,3.59-7.09c3.63-5.49,12.26-6.42,16.75-11.5-5.26,0-18.48,5.93-17.11,5.18a16.63,16.63,0,0,0-5.42,3.15c-.48.37,1.72-3,2.54-3.65a22,22,0,0,1,6-3.38c4.88-1.9,10.21-2.34,15.29-3.45-6-1.92-11.22-4.7-17.68-4.65,4.92-9.08-4.48-20.94-10.84-27-6.76-6.44-15.18-10.79-23-15.69-10-6.26-18.69-16.45-30-20.41-7.9-2.77-17-3.75-25.71-4-1.18,12.07.45,24.51,2.28,36.36.93,6,1.61,11,2.12,15.74a68.28,68.28,0,0,1,.32,12.21,22.77,22.77,0,0,0,0,2.75c0,.39,0,.79.06,1.19,3.26-6.72,7.93-16.3,8.63-15.55,1.09,1.17-3,8.28-3.58,9.49-1.14,2.39-2.35,4.75-3.51,7.14-.69,1.43-2.4,4-3.23,6.14,0,.06,0,.12,0,.19a.08.08,0,0,1,0,.06l-.06,0h0a5.24,5.24,0,0,0-.36,1.9c.12,2.59,2.69,2.37,5.32,3.43A42.68,42.68,0,0,1,160,188.62a28,28,0,0,1,7.47,8.58C169.19,200.24,169.58,202.8,173.49,203.28Z"/><path class="cls-8" d="M191.86,45.54"/><path class="cls-6" d="M214.84,39.61a193.37,193.37,0,0,0-29.39,6.87,177.29,177.29,0,0,0-31.53,13.57h0a10.85,10.85,0,0,0-4.78,4A46.92,46.92,0,0,1,157,48.65C153.61,53,194.74,39.1,214.84,39.61Z"/><path class="cls-6" d="M119.27,50.28a69.79,69.79,0,0,1,6.16,7.18c.4.53.86,1.11,1.34,1.72,2.69,3.41,6.36,8.06,6.61,12.06a134.53,134.53,0,0,0-12.8-10.68c.85.32,1.69.69,1.88.27.42-.94,0-3.06-.48-4.17Z"/><path class="cls-6" d="M261.85,42.29c-8.06,3.07-15.89,6.64-23.6,10.15-5.76,2.62-11.71,5.34-17.67,7.8a120.05,120.05,0,0,1-36.89,8.5,98,98,0,0,1-16.59,0c-.74-.07-1.47-.16-2.19-.25-1.11-.15-2.25-.34-3.35-.53-1.51-.26-3.07-.52-4.61-.67a17.3,17.3,0,0,0-7.83.76c2.25-4.75,7.07-7.11,11.74-9.39l1.7-.84q2.49-1.25,5-2.42a3.7,3.7,0,0,0-.18,2.61c.67,2.06,3.07,2.93,5.2,3.33,13.65,2.59,27.44-2.39,40.66-6.64A410.23,410.23,0,0,1,261.85,42.29Z"/><path class="cls-6" d="M132.3,72.95c-3.4-3.74-4.95-6.23-9.65-9.74-9.26-4.43-33-5.41-42.88-7.44-23.75-4.86-34.88-8-51.9-21C28.71,35.9,29.57,37,30.46,38c6.38,7.45,16.06,12.66,23.06,15.71a103.67,103.67,0,0,0,29.11,7.8l4.82.52c8.35.89,16.23,1.73,24.47,4l11.08,3C126.06,70.19,129.29,71.52,132.3,72.95Z"/><path class="cls-9" d="M137.25,133q.06,2.09.13,4.31c.07,2.16.17,4.36.26,6.49.15,3.47.3,7.05.37,10.58,0,1.18,0,2.31,0,3.41q-.48-2.15-1.11-4.24a42.4,42.4,0,0,0-8.57-15.45q1.61,1.26,3.24,2.48c.84.63,1.89,1.29,2.88.93s1.39-1.63,1.6-2.7Z"/><path class="cls-9" d="M62,170.92a64.82,64.82,0,0,0,6.34,4.44c5.28,2.79,12,3.2,17.77,3.72a135.47,135.47,0,0,0,23-.33C94.31,178.57,76.52,177.33,62,170.92Z"/><path class="cls-9" d="M167,170.84c-.41,2.44.47,5.8,1.22,8.44a5.91,5.91,0,0,0-4.55-1.47C165.79,175.83,165.52,173.3,167,170.84Z"/><path class="cls-9" d="M146.23,153.68l0,.34a68.28,68.28,0,0,1,.32,12.21,22.77,22.77,0,0,0,0,2.75c0,.39,0,.79.06,1.19,1.68-3.46,3.73-7.67,5.42-10.85-.22.19-.44.37-.67.54a1.56,1.56,0,0,1-1.23.42,1.59,1.59,0,0,1-.81-.65A20,20,0,0,1,146.23,153.68Z"/><path class="cls-9" d="M167,171a23,23,0,0,1,4.63-10.12c.95-1.26,2.43-2.48,3-4,.95-2.31.65-5.59,1.16-8.23-3.24,3.15-8.15,4.32-12.47,6a41.53,41.53,0,0,0-9.46,5.21c-.9,1.88-1.9,3.67-2.16,4.22-1.07,2.26-2.21,4.48-3.31,6.73,1-.24,2.06-.37,2.62-.55a10,10,0,0,1,3.33-.32A111.59,111.59,0,0,1,167,171Z"/><path class="cls-9" d="M64.12,153.38a145.86,145.86,0,0,0,21.41,3l.52,0h.19l4.64.2a132.37,132.37,0,0,1,17.45,1.76c6.11,1.11,12.67,2.37,18.54,6.35,6.17,4.18,8.33,6.35,9.22,8.86.13-1.13,1.25-3.56,1.32-4.7-1.64-5.72-5.59-12.09-10.32-17.74-4.26-5.09-9.66-9-16.1-12.89a110.16,110.16,0,0,0-40.82-14.46l-1.94-.27-.2.14c-8.77,6.29-15.53,15.16-20.13,25A90.7,90.7,0,0,0,64.12,153.38Z"/><path class="cls-3" d="M299.07,30.41c-2.32-2.41-6.81-4.09-10.41-5.45l-2.11-.81a77.64,77.64,0,0,0-12.43-3.73,90.58,90.58,0,0,0-10.3-1.59,121.87,121.87,0,0,0-16.53-.42,259.51,259.51,0,0,0-27.18,2.37,164.29,164.29,0,0,0-20.41,4.73c-2.24.62-4.56,1.26-6.85,1.87-6.88,1.8-14.17,3.91-20.84,7.14-7.36,3.56-13,8-17.14,13.57A45,45,0,0,0,146.78,65c-.2.91-.37,1.82-.54,2.71a26.94,26.94,0,0,1-2.41,8.08,27.54,27.54,0,0,1,.48-6,35.61,35.61,0,0,0,.51-4.7c0-1.3,0-2.6-.11-3.86a30.41,30.41,0,0,1,.16-6.81c1.42-8.23,2.08-14.89,1-22.66a45.87,45.87,0,0,0-5.38-16.45c-.19-.34-.56-1-1-1.92C135.73,6.52,132.16.11,131,0h-.09c-1.47.26-3,3.94-3.73,6.16-.21.63-.86,2.22-1,2.62a46.33,46.33,0,0,0-3.28,10.07,31.8,31.8,0,0,0,2.36,19.08,162.81,162.81,0,0,0,8,15.15c.8,1.4,1.62,2.84,2.42,4.26.27.49.56,1,.84,1.46a22.6,22.6,0,0,1,3,6.88c.51,2.63.58,8.37-1.06,10.52-1.74-.56-2.69-3.32-3.45-5.55a20.74,20.74,0,0,0-.77-2,71.16,71.16,0,0,0-5.81-9.88,73.59,73.59,0,0,0-15.69-16.29,101.32,101.32,0,0,0-41-19.24C65.73,22,59.64,21,53.76,20a242.38,242.38,0,0,1-26-5.16c-1.14-.31-2.3-.67-3.43-1A56,56,0,0,0,17.09,12c-.34-.06-.65-.1-.93-.13-1.29-.13-2.06,0-2.4.51-.55.75,0,2.13.95,4.33A83.14,83.14,0,0,0,27.1,36.39c8.55,10.46,21.11,18.2,36.34,22.38C71,60.84,77.8,62.61,85.27,63.34l.53.05.2,0,4.76.44a116,116,0,0,1,17.84,2.87c6.21,1.6,12.77,3.74,18.65,8.47,5.06,4.07,10.79,8.68,10.42,16.16-.14,2.86-.24,5.74-.31,8.62a104,104,0,0,0-30.2,3.8c-16.09,4.61-31.94,10.42-45.21,21-12.13,9.65-22,28.7-23.16,44.28-1.49,20.77,16.54,32.46,35.44,32.75,7.19.11,14.65.11,21.77-1,9.29-1.43,17.69-4.19,27.18-3.63a61.89,61.89,0,0,1,23.08,5.56c5,2.38,10.13,4.83,15.51,6.15,1.94.48,4.47,1.18,6.46.47,3.14-1.11,1.67-2.09,2.35-4.51,2.52.92,3.45,1,5.61,2.75a27,27,0,0,0,7.08,4.19c5.33,2.16,10,1.37,14.93-1.36,3.94-2.16,7.26-2.72,11.63-3.74A35.1,35.1,0,0,0,223,200.25a35,35,0,0,0,5.5-4.52c2.41-2.71,3.39-6.75,5.84-9.27,2.74-2.81,7.53-3.71,10.79-5.81,1.65-1.07,11.33-6.75,7.22-8.23-4.57-1.65-9.13-3.24-13.69-4.91-2-.73-2.7-.22-3.58-2-.64-1.29-.26-3.86-.58-5.39-1.34-6.35-4.93-12-9.3-16.67-7-7.49-15.7-11.89-24.28-17.14s-15.66-12.68-24.16-18c-6.91-4.33-14.57-5.75-22.5-6.93-4-.6-8.1-1-12.19-1.24q.33-2.73.88-5.44c.12-.59.29-1.18.45-1.75s.32-1.13.44-1.7c1-4.9,3-8.44,5.32-12.54l1.1-2a26.12,26.12,0,0,0,1.2-2.62c1.17-2.82,2.27-5.48,5.54-5.35.65,0,1.33.07,2.06.15,1.77.17,3.59.46,5.34.74s3.61.58,5.43.76c1,.1,1.87.15,2.74.17a118.39,118.39,0,0,0,32.37-3.84,165.34,165.34,0,0,0,30.59-11.4c12.61-6,23.29-10.83,34.43-14.53a99.67,99.67,0,0,1,18.5-3.87l.24,0c6.83-.9,10.61-2.28,11.24-4.1A2.34,2.34,0,0,0,299.07,30.41ZM139.22,58.62c-.66-1-1.33-2-2-3.1-5.19-7.86-11.07-16.76-12.72-25.59a27.83,27.83,0,0,1,.18-12.11,40.63,40.63,0,0,1,1.89-5.13c.23-.56.48-1.13.7-1.7.14-.36.34-1,.57-1.74.68-2.24,1.7-5.6,2.79-6.22.31.47-.83,5.39-1.08,8.4a15.48,15.48,0,0,0,.32,4A46,46,0,0,0,133.75,30C137.81,39.16,141.28,48.23,139.22,58.62Zm1.91-8.15a40,40,0,0,0-.58-6.49,58.65,58.65,0,0,0-4.48-13c-2.5-5.47-7.82-19-3.41-26.66a31.36,31.36,0,0,1,2.54,4.63,37.39,37.39,0,0,0,2.2,4.15,40.58,40.58,0,0,1,4.53,9.26c2.7,7.92,4,16.43,3,22.95l-.1.68c-.57,3.72-1.15,7.56-3.14,10.87A38.35,38.35,0,0,1,141.13,50.48ZM87.44,62l-4.82-.52a103.67,103.67,0,0,1-29.11-7.8c-7-3.06-16.68-8.26-23.06-15.71a113.83,113.83,0,0,1-8.32-11.35c-.25-.38-.59-.87-1-1.43-2.12-3-6.07-8.68-5.42-11.44a16.48,16.48,0,0,1,2.43.07,47.23,47.23,0,0,1,9.68,2.44c1.55.51,3,1,4.43,1.37a141.08,141.08,0,0,0,16.8,3.73l1.77.25C63.06,23.35,74.59,25,86.09,29.12c10.84,3.91,19.78,10.4,28.74,17.26a56.05,56.05,0,0,1,10.59,11.08c.4.53.86,1.11,1.34,1.72,2.69,3.41,6.36,8.06,6.61,12.06a134.33,134.33,0,0,0-22.81-17.36,143.39,143.39,0,0,0-26-12.27h0a.08.08,0,0,0-.07.13c1.68,2.15,5.16,3.52,8.23,4.73,1.14.45,2.21.87,3.09,1.3,4.69,2.25,9.25,4.49,13.57,7.08,9.69,5.82,17.22,11.74,23,18.09a83.44,83.44,0,0,0-20.4-6.9C103.67,63.77,95.79,62.93,87.44,62Zm80.86,144.5c-1.39,2-4.93.49-6.67-.11A135.71,135.71,0,0,1,146,200c-7.15-3.54-15.72-4.89-23.68-5.11-12.12-.35-24,3.85-36.09,4.41-13.28.61-31.09-.23-39.83-12-6.23-8.4-5.15-19.68-2.18-29.11C48.44,144.69,56.5,132,68,123.7c17.61-12.62,42.61-21.15,64.26-21.75,1.65,0,3.33-.07,5-.08-.06,2.73-.11,5.45-.16,8.12q0,1.55-.06,3.1c-.13,7.13,0,14.61.28,24.25.07,2.16.17,4.36.26,6.49.15,3.47.3,7.05.37,10.58,0,1.18,0,2.31,0,3.41q-.48-2.15-1.11-4.24c-2.84-9.42-8.71-16.72-16.26-22.89-3.38-2.76-6.8-6.08-11-7.59-3.81-1.38-15.34-2.84-18.46.71,7.37-.43,14.61-.9,21.39,2.61s12.92,10,17.2,16.25c7,10.15,7.82,23.52,5.58,35.41-7.43-1.63-15.81-.18-23.3.45-8.71.74-17.25,1.35-26,.57-5.81-.52-12.49-.93-17.77-3.72-2.61-1.38-4.45-3.65-6.83-5.35.44,4.26,6.14,6.95,9.52,8.29C78.85,181.4,87.7,182,96,181.62c20-1,39.78-4.8,58.31,5.73a32.9,32.9,0,0,1,10.9,9.5C166.49,198.7,170,204.18,168.3,206.54Zm-.72-100.67c11.27,4,19.94,14.15,30,20.41,7.86,4.91,16.28,9.25,23,15.69,6.36,6.06,15.77,17.92,10.84,27,6.46-.05,11.67,2.73,17.68,4.65-5.08,1.11-10.41,1.54-15.29,3.45a22,22,0,0,0-6,3.38c-.82.67-3,4-2.54,3.65a16.63,16.63,0,0,1,5.42-3.15c-1.37.75,11.85-5.21,17.11-5.18-4.49,5.08-13.12,6-16.75,11.5-1.47,2.22-1.88,5-3.59,7.09s-4.63,3.66-6.81,5.26c-5,3.66-9.84,4.94-15.73,6.18-8.25,1.73-12.35,7.18-21.33,3.87,2.17-2.61,8.84-1.35,6.82-4.59-.45-.73-4.86-3.37-5.9-2.64-1.75,1.23,1.22,4,.44,5-2.29,2.89-7-.37-8.45-2.45-2.54-3.76-1.92-9.82-2.51-14.17-1.13-8.39-7.62-14.95-4.32-23.59a20.92,20.92,0,0,1,4.17-7.06c.57-.57,2.41-1.41,2.75-1.94.93-1.45.65-4.78,1-6.67.63-3.52,1.7-6.95,2.58-10.4.35,4.1-.32,8.31.61,12.34.3,1.29,3.18,9.47,5.3,8.67-1.14.43-4-12.63-4-13.69a45.08,45.08,0,0,1,2-16c1.6,3.75,7.16,14.48,12.85,13.31-2.63-2.07-5.11-3.93-7.13-6.62-.76-1-4.67-9.13-5.63-9.2-3.06-.21-7.58,15.47-8.25,18.21s-.26,6.28-1.27,8.74c-.61,1.48-2.09,2.7-3,4-3.92,5.19-6,11.12-4.17,17.62-1.76-1.3-4.2-1-6.25-.92-.56,0-4,.6-4.27.57,5,1.28,10.3.78,13.52,5.81s2.2,13.68,3,19.34c-3.92-.48-4.3-3-6-6.08a28,28,0,0,0-7.47-8.58A42.68,42.68,0,0,0,149.87,183c-2.62-1.06-5.2-.84-5.32-3.43a5.24,5.24,0,0,1,.36-1.9h0l.06,0a.08.08,0,0,0,0-.06c0-.06,0-.12,0-.19.83-2.17,2.54-4.71,3.23-6.14,1.16-2.38,2.37-4.74,3.51-7.14.58-1.22,4.67-8.33,3.58-9.49-.7-.75-5.37,8.83-8.63,15.55,0-.4,0-.8-.06-1.19a22.77,22.77,0,0,1,0-2.75,68.28,68.28,0,0,0-.32-12.21c-.51-4.72-1.19-9.72-2.12-15.74-1.84-11.85-3.46-24.3-2.28-36.36C150.6,102.12,159.68,103.1,167.58,105.87Zm-27.25-1.72a135.74,135.74,0,0,0,.7,27.71c.37,2.55.8,5.13,1.22,7.63.68,4.06,1.39,8.26,1.84,12.43.74,6.88.39,14,0,20.89,0,1-.1,1.93-.14,2.9-.17.33-.3.57-.39.69-.95,1.42-2,2.8-4,2.47-1.32-.23-1.55-1.4-1.41-2.86,2.73-7.7,2.13-17.08,1.6-25.47-.15-2.39-.3-4.65-.37-6.84-.08-2.48-.2-5-.32-7.44-.22-4.53-.44-9.21-.42-13.82,0-9,.23-17.92.44-26.27,0-1,.09-2.12.15-3.16.08-1.3.16-2.65.16-4,0-6.21-6.73-12-12.09-15.91a62.37,62.37,0,0,1,12.15,6.24h.07a.08.08,0,0,0,.05,0c1.87-3.67,1.53-10.11,1.1-14.64-.11-1.19-.19-4.51.77-5.47a.82.82,0,0,1,.7-.26,1.65,1.65,0,0,1,.67.25c.47.28.65,2.46.54,6.47,0,.17,0,.3,0,.4a44.9,44.9,0,0,1-1,7.85,17.91,17.91,0,0,1-.58,2c-.59,1.8-1.21,3.66-.43,5.18a.08.08,0,0,0,.06,0h0a.08.08,0,0,0,.06,0,22.74,22.74,0,0,0,3.56-4.91c1.89-3.13,3.84-6.36,7.15-7.07C144.79,81,141.12,91.82,140.33,104.15Zm153.35-70-.71.07c-19.62,2.2-37.46,10.33-54.71,18.19-5.76,2.62-11.71,5.34-17.67,7.8a120.05,120.05,0,0,1-36.89,8.5,98,98,0,0,1-16.59,0c-.74-.07-1.47-.16-2.19-.25-1.11-.15-2.25-.34-3.35-.53-1.51-.26-3.07-.52-4.61-.67a17.3,17.3,0,0,0-7.83.76c2.25-4.75,7.07-7.11,11.74-9.39l1.7-.84A167.77,167.77,0,0,1,180.69,50,179.48,179.48,0,0,1,200,44.37L205.77,43l3.44-.81c.76-.18,1.61-.33,2.5-.49,2.69-.49,5.75-1,7.64-2.57a.08.08,0,0,0,0-.15h0a195.14,195.14,0,0,0-33.84,7.51,177.29,177.29,0,0,0-31.53,13.57h0a10.85,10.85,0,0,0-4.78,4C153,51.41,160.73,42.22,172.64,36c6.11-3.21,12.92-5,19.5-6.7l.19-.05c2.69-.7,5.39-1.51,8-2.29a131,131,0,0,1,14.33-3.7c16.24-2.91,31.27-4,44.69-3.27,1.32.07,2.65.17,4,.3a86.85,86.85,0,0,1,16.55,3.23,79.6,79.6,0,0,1,9.78,3.65c.36.16.81.35,1.34.56,2.58,1.05,6.47,2.64,7.07,4.72C296.91,33.89,295.27,34,293.67,34.19Z"/><path class="cls-9" d="M214.36,136.76h-.14A56.25,56.25,0,0,0,190,139.33a37.51,37.51,0,0,0,7,6.44c-5.69,1.17-11.25-9.56-12.85-13.31a45.08,45.08,0,0,0-2,16c.09,1.06,2.91,14.12,4,13.69-2.13.81-5-7.37-5.3-8.67-.93-4-.27-8.25-.61-12.34-.88,3.46-2,6.89-2.58,10.4-.34,1.89-.06,5.22-1,6.67-.34.53-2.18,1.37-2.75,1.94a20.92,20.92,0,0,0-4.17,7.06,13.79,13.79,0,0,0-.89,4c10.79,2.33,19.91,11.64,29.69,16.87,8.08,4.32,16.85,8,25.87,8.94a15.66,15.66,0,0,0,3.14-2.75c1.71-2.1,2.13-4.87,3.59-7.09,3.63-5.49,12.26-6.42,16.75-11.5-5.26,0-18.48,5.93-17.11,5.18a16.63,16.63,0,0,0-5.42,3.15c-.48.37,1.72-3,2.54-3.65a22,22,0,0,1,6-3.38c4.88-1.9,10.21-2.34,15.29-3.45-6-1.92-11.22-4.7-17.68-4.65,4.92-9.08-4.48-20.94-10.84-27a60.14,60.14,0,0,0-6.37-5.22"/><path class="cls-3" d="M192.56,177.7c-.94-1.75-6.07-4.38-7.95-5.07a22.18,22.18,0,0,0,4.57,5.94c2.94,2.88,1.06,3.88,1.44,7.63C191.31,184.27,193.56,179.58,192.56,177.7Z"/><path class="cls-3" d="M203,193.85c4.13-3,8-1.06,12,.38-1.19-.88-5.38-4.94-6.76-4.88C206.58,189.28,204,192.6,203,193.85Z"/></g></g></svg>