<svg xmlns="http://www.w3.org/2000/svg" viewBox="0 0 334.24 297.65"><defs><style>.cls-1{fill:#e0e4d6;}.cls-2{fill:#bacca2;}.cls-3{fill:#998a5c;}.cls-4{fill:#62853b;}.cls-5{fill:#4d5b2f;}.cls-6{fill:gray;}.cls-7{fill:#81b609;stroke:#000;stroke-miterlimit:10;}.cls-8{fill:#606060;}.cls-9{fill:#231f20;}</style></defs><title>Asset 1</title><g id="Layer_2" data-name="Layer 2"><g id="Frente"><ellipse class="cls-1" cx="150.34" cy="148.83" rx="148.86" ry="148.83"/><path class="cls-2" d="M1.54,152.93a148.86,148.86,0,0,0,297.6,0c-45.24-10.64-95.64-16.6-148.8-16.6S46.78,142.29,1.54,152.93Z"/><path class="cls-3" d="M132.83,91.36c6.26,4.58,14.14,11.33,14.11,18.57,0,1.53-.1,3.11-.19,4.63-.07,1.21-.15,2.46-.18,3.69-.24,9.75-.47,20.21-.51,30.65,0,5.37.24,10.84.49,16.12.14,2.84.28,5.78.37,8.68.08,2.56.25,5.19.43,8,.62,9.78,1.32,20.73-1.87,29.72-.17,1.7.11,3.07,1.65,3.34,2.26.39,3.51-1.22,4.61-2.88.09-.14.25-.42.45-.81.05-1.14.11-2.27.16-3.38.4-8,.81-16.34-.05-24.37-.53-4.86-1.35-9.76-2.14-14.5-.49-2.91-1-5.93-1.43-8.9a158.38,158.38,0,0,1-.82-32.33c.92-14.39,5.21-27,13.88-40.81-3.86.84-6.14,4.6-8.34,8.25a26.53,26.53,0,0,1-4.15,5.73.1.1,0,0,1-.08,0h0a.1.1,0,0,1-.07-.05c-.9-1.77-.19-3.94.51-6a20.9,20.9,0,0,0,.68-2.35,52.38,52.38,0,0,0,1.19-9.16c0-.11,0-.27,0-.47.13-4.68-.08-7.22-.63-7.55a1.92,1.92,0,0,0-.78-.29,1,1,0,0,0-.81.3c-1.13,1.12-1,5-.9,6.38.5,5.29.9,12.81-1.28,17.09a.1.1,0,0,1-.06,0h0l0,0A72.77,72.77,0,0,0,132.83,91.36Z"/><path class="cls-4" d="M167.34,84.51c1.79.18,3.62.49,5.38.79,1.28.22,2.61.44,3.9.62.83.11,1.69.21,2.55.29a114.4,114.4,0,0,0,19.35,0,140.08,140.08,0,0,0,43-9.92c7-2.88,13.9-6,20.62-9.1C282.31,58.06,303.13,48.57,326,46l.83-.08c1.86-.17,3.78-.35,5.1-2.07-.69-2.43-5.24-4.28-8.25-5.51-.61-.25-1.14-.46-1.56-.65a92.88,92.88,0,0,0-11.41-4.25,101.33,101.33,0,0,0-19.32-3.77c-1.52-.15-3.07-.27-4.61-.35-15.65-.87-33.2.42-52.14,3.82A152.85,152.85,0,0,0,218,37.45c-3,.91-6.19,1.85-9.34,2.67l-.23.06c-7.68,2-15.62,4.07-22.75,7.82-13.9,7.3-22.88,18-27.41,32.75a12.66,12.66,0,0,1,5.57-4.62h0a206.87,206.87,0,0,1,36.79-15.84,227.69,227.69,0,0,1,39.48-8.76h0a.1.1,0,0,1,.05.17c-2.21,1.79-5.77,2.43-8.91,3-1,.19-2,.37-2.92.58l-4,.95-6.76,1.6A209.41,209.41,0,0,0,195,64.35a195.76,195.76,0,0,0-21.14,9.1l-2,1c-5.45,2.67-11.08,5.42-13.7,11A20.19,20.19,0,0,1,167.34,84.51Z"/><path class="cls-4" d="M135.67,24.08a18.06,18.06,0,0,1-.37-4.7c.29-3.52,1.62-9.26,1.26-9.8-1.26.72-2.46,4.65-3.25,7.26-.26.87-.49,1.62-.66,2-.26.66-.55,1.33-.82,2a47.4,47.4,0,0,0-2.2,6A32.47,32.47,0,0,0,129.42,41c1.92,10.3,8.79,20.69,14.84,29.86.83,1.25,1.61,2.44,2.38,3.62,2.4-12.12-1.65-22.71-6.38-33.38A53.7,53.7,0,0,1,135.67,24.08Z"/><path class="cls-4" d="M8.88,35.47c.46.66.86,1.23,1.15,1.67a132.82,132.82,0,0,0,9.7,13.24c7.45,8.69,18.74,14.77,26.91,18.33a121,121,0,0,0,34,9.1l5.62.61c9.74,1,18.94,2,28.55,4.66a97.35,97.35,0,0,1,23.8,8.06C131.83,83.74,123,76.83,111.74,70c-5-3-10.36-5.63-15.83-8.27-1-.5-2.29-1-3.61-1.51-3.58-1.41-7.64-3-9.6-5.52a.1.1,0,0,1,.09-.16h0A167.31,167.31,0,0,1,113.2,68.91a156.74,156.74,0,0,1,26.62,20.25c-.29-4.68-4.57-10.1-7.71-14.08-.56-.71-1.1-1.39-1.57-2a65.4,65.4,0,0,0-12.35-12.93c-10.46-8-20.89-15.57-33.54-20.14-13.43-4.85-26.88-6.73-41.12-8.73L41.46,31a164.62,164.62,0,0,1-19.61-4.35c-1.64-.44-3.35-1-5.17-1.59A55.11,55.11,0,0,0,5.39,22.21a19.23,19.23,0,0,0-2.84-.08C1.8,25.35,6.4,31.93,8.88,35.47Z"/><path class="cls-5" d="M149.81,32.1a47.36,47.36,0,0,0-5.29-10.8A43.62,43.62,0,0,1,142,16.46a36.59,36.59,0,0,0-3-5.41c-5.14,9,1.06,24.73,4,31.11a68.44,68.44,0,0,1,5.23,15.21,46.72,46.72,0,0,1,.67,7.57,44.74,44.74,0,0,0,.67,7.41c2.32-3.86,3-8.35,3.66-12.68l.12-.79C154.49,51.27,153,41.34,149.81,32.1Z"/><path class="cls-6" d="M144.42,124.9c-2,0-4,0-5.88.09-25.26.7-54.43,10.65-75,25.38-13.45,9.64-22.85,24.49-27.8,40.19-3.47,11-4.73,24.15,2.54,34,10.2,13.76,31,14.74,46.47,14,14.16-.65,28-5.55,42.11-5.14,9.29.27,19.28,1.83,27.63,6a158.34,158.34,0,0,0,18.28,7.52c2,.7,6.16,2.42,7.78.13,2-2.75-2.11-9.15-3.61-11.31a38.39,38.39,0,0,0-12.72-11.08c-21.62-12.29-44.65-7.83-68-6.69-9.69.48-20-.26-29.11-3.87-3.95-1.56-10.59-4.7-11.11-9.67,2.77,2,4.92,4.63,8,6.24,6.16,3.26,14,3.73,20.73,4.34,10.18.91,20.14.2,30.3-.67,8.75-.74,18.52-2.43,27.19-.53,2.61-13.88,1.64-29.47-6.52-41.32-5-7.26-12.16-14.86-20.07-19s-16.35-3.54-25-3c3.65-4.13,17.1-2.44,21.54-.82,4.87,1.77,8.88,5.64,12.81,8.86,8.8,7.2,15.66,15.71,19,26.71q.74,2.44,1.3,5c0-1.28,0-2.6,0-4-.08-4.11-.26-8.29-.43-12.34-.1-2.48-.21-5-.3-7.57-.38-11.25-.48-20-.33-28.3q0-1.81.06-3.62C144.29,131.25,144.35,128.08,144.42,124.9Z"/><path class="cls-6" d="M186.63,243.23c-1-6.6.16-16.82-3.53-22.57s-9.89-5.29-15.78-6.78c.34,0,4.33-.64,5-.67,2.39-.09,5.24-.45,7.3,1.07-2.16-7.58.3-14.5,4.87-20.55,1.11-1.47,2.83-2.89,3.54-4.61,1.18-2.87.7-7,1.49-10.2s6.06-21.49,9.63-21.25c1.12.08,5.69,9.55,6.57,10.73,2.36,3.14,5.25,5.3,8.32,7.72-6.64,1.37-13.13-11.15-15-15.53-1.73,6.1-2.91,12.35-2.38,18.72.1,1.24,3.39,16.48,4.72,16-2.48.94-5.84-8.6-6.19-10.11-1.08-4.71-.31-9.63-.71-14.4-1,4-2.28,8-3,12.14-.4,2.21-.07,6.09-1.15,7.79-.4.62-2.55,1.6-3.21,2.26a24.41,24.41,0,0,0-4.86,8.24c-3.84,10.09,3.73,17.75,5,27.53.68,5.08,0,12.15,2.93,16.53,1.64,2.42,7.19,6.23,9.86,2.85.9-1.14-2.56-4.43-.51-5.87,1.21-.85,6.36,2.23,6.89,3.08,2.36,3.79-5.43,2.31-8,5.36,10.47,3.86,15.26-2.49,24.89-4.52,6.87-1.45,12.56-2.94,18.35-7.21,2.54-1.87,5.95-3.69,7.94-6.14s2.48-5.68,4.19-8.27c4.24-6.41,14.31-7.49,19.55-13.42-6.14,0-21.56,6.92-20,6a19.41,19.41,0,0,0-6.32,3.67c-.56.44,2-3.48,3-4.26a25.66,25.66,0,0,1,6.95-3.94c5.69-2.22,11.91-2.73,17.84-4-7-2.24-13.09-5.49-20.63-5.43,5.75-10.59-5.23-24.43-12.65-31.5-7.89-7.51-17.71-12.59-26.89-18.31-11.7-7.3-21.81-19.2-35-23.81-9.22-3.23-19.81-4.38-30-4.62-1.38,14.08.52,28.6,2.67,42.43,1.09,7,1.87,12.87,2.47,18.37a79.68,79.68,0,0,1,.38,14.25,26.57,26.57,0,0,0,.06,3.21c0,.46.05.92.07,1.39,3.8-7.84,9.25-19,10.07-18.14,1.27,1.36-3.51,9.66-4.18,11.08-1.33,2.79-2.74,5.54-4.09,8.33-.81,1.66-2.8,4.63-3.77,7.16,0,.07,0,.14,0,.22a.1.1,0,0,1-.11.1h0a6.12,6.12,0,0,0-.43,2.21c.14,3,3.14,2.77,6.2,4a49.8,49.8,0,0,1,11.88,6.57,32.69,32.69,0,0,1,8.72,10C181.61,239.68,182.06,242.67,186.63,243.23Z"/><path class="cls-7" d="M208.06,59.18"/><path class="cls-5" d="M234.88,52.26a225.62,225.62,0,0,0-34.29,8,206.87,206.87,0,0,0-36.79,15.84h0a12.66,12.66,0,0,0-5.57,4.62,54.75,54.75,0,0,1,9.21-17.95C163.43,67.91,211.42,51.65,234.88,52.26Z"/><path class="cls-5" d="M123.35,64.7a81.43,81.43,0,0,1,7.18,8.38c.47.62,1,1.29,1.57,2,3.14,4,7.42,9.4,7.71,14.08a157,157,0,0,0-14.94-12.46c1,.37,2,.81,2.19.32.49-1.1,0-3.58-.56-4.87Z"/><path class="cls-5" d="M289.73,55.38c-9.4,3.58-18.54,7.74-27.54,11.84-6.72,3.06-13.66,6.23-20.62,9.1a140.08,140.08,0,0,1-43,9.92,114.4,114.4,0,0,1-19.35,0c-.86-.08-1.72-.18-2.55-.29-1.3-.17-2.62-.4-3.9-.62-1.76-.3-3.58-.61-5.38-.79a20.19,20.19,0,0,0-9.13.89c2.62-5.54,8.25-8.3,13.7-11l2-1q2.91-1.46,5.87-2.82a4.32,4.32,0,0,0-.21,3c.78,2.4,3.58,3.42,6.07,3.89,15.92,3,32-2.79,47.45-7.75A478.66,478.66,0,0,1,289.73,55.38Z"/><path class="cls-5" d="M138.57,91.15c-4-4.37-5.77-7.27-11.26-11.36-10.8-5.17-38.52-6.32-50-8.68-27.71-5.68-40.7-9.29-60.55-24.45,1,1.26,2,2.51,3,3.72,7.45,8.69,18.74,14.77,26.91,18.33a121,121,0,0,0,34,9.1l5.62.61c9.74,1,18.94,2,28.55,4.66l12.93,3.55C131.28,87.94,135.05,89.48,138.57,91.15Z"/><path class="cls-8" d="M144.34,161.26q.07,2.43.16,5c.09,2.52.19,5.09.3,7.57.17,4,.35,8.23.43,12.34,0,1.37,0,2.7,0,4q-.56-2.5-1.3-5a49.48,49.48,0,0,0-10-18q1.88,1.47,3.79,2.89c1,.74,2.21,1.5,3.36,1.08s1.62-1.9,1.87-3.16Z"/><path class="cls-8" d="M56.56,205.47a75.64,75.64,0,0,0,7.4,5.19c6.16,3.26,14,3.73,20.73,4.34,9,.81,17.89.34,26.87-.38C94.24,214.39,73.47,213,56.56,205.47Z"/><path class="cls-8" d="M179.09,205.38c-.48,2.85.55,6.77,1.42,9.85a6.89,6.89,0,0,0-5.31-1.72C177.64,211.19,177.32,208.24,179.09,205.38Z"/><path class="cls-8" d="M154.82,185.35l0,.4a79.68,79.68,0,0,1,.38,14.25,26.57,26.57,0,0,0,.06,3.21c0,.46.05.92.07,1.39,2-4,4.35-9,6.32-12.66-.26.22-.52.43-.79.63a1.83,1.83,0,0,1-1.43.49,1.86,1.86,0,0,1-.94-.76A23.34,23.34,0,0,1,154.82,185.35Z"/><path class="cls-8" d="M179.06,205.53a26.86,26.86,0,0,1,5.4-11.81c1.11-1.47,2.83-2.89,3.54-4.61,1.11-2.7.76-6.53,1.36-9.6-3.79,3.68-9.51,5-14.55,7a48.46,48.46,0,0,0-11,6.08c-1.05,2.2-2.21,4.28-2.52,4.93-1.25,2.63-2.58,5.23-3.86,7.85,1.12-.28,2.4-.43,3.05-.65a11.63,11.63,0,0,1,3.88-.37A130.2,130.2,0,0,1,179,205.52Z"/><path class="cls-8" d="M59,185c8.64,1.69,16.48,3.12,25,3.53l.6,0h.22l5.41.24a154.45,154.45,0,0,1,20.36,2.05c7.13,1.3,14.78,2.77,21.63,7.41,7.2,4.87,9.71,7.41,10.76,10.33.16-1.32,1.45-4.15,1.54-5.48-1.91-6.68-6.52-14.1-12-20.7-5-5.93-11.27-10.55-18.79-15a128.54,128.54,0,0,0-47.62-16.87l-2.27-.32-.23.16c-10.23,7.33-18.12,17.69-23.49,29.13A105.83,105.83,0,0,0,59,185Z"/><path class="cls-9" d="M333.15,41.52c-2.71-2.81-7.94-4.78-12.15-6.36-.88-.33-1.71-.64-2.46-.94A90.6,90.6,0,0,0,304,29.87,105.69,105.69,0,0,0,292,28a142.2,142.2,0,0,0-19.29-.49A302.8,302.8,0,0,0,241,30.29a191.69,191.69,0,0,0-23.81,5.52c-2.61.73-5.32,1.48-8,2.18-8,2.1-16.53,4.57-24.32,8.33-8.59,4.15-15.13,9.33-20,15.84a52.54,52.54,0,0,0-9.44,19.75c-.23,1.06-.44,2.13-.63,3.16A31.44,31.44,0,0,1,152,94.49a32.14,32.14,0,0,1,.56-7,41.55,41.55,0,0,0,.6-5.48c0-1.52-.05-3-.13-4.5a35.48,35.48,0,0,1,.18-8c1.66-9.6,2.42-17.37,1.13-26.44a53.52,53.52,0,0,0-6.27-19.19c-.23-.4-.66-1.21-1.21-2.24-4.31-8.06-8.48-15.53-9.8-15.66H137c-1.71.3-3.49,4.6-4.35,7.19-.25.74-1,2.59-1.21,3.05A54.06,54.06,0,0,0,127.59,28a37.11,37.11,0,0,0,2.75,22.26A190,190,0,0,0,139.63,68c.93,1.63,1.89,3.32,2.82,5,.32.57.65,1.14,1,1.7a26.37,26.37,0,0,1,3.55,8c.59,3.07.68,9.77-1.24,12.28-2-.65-3.14-3.88-4-6.47a24.2,24.2,0,0,0-.89-2.36A83,83,0,0,0,134,74.6a85.86,85.86,0,0,0-18.31-19A118.22,118.22,0,0,0,67.85,33.15c-7-1.49-14.06-2.63-20.93-3.74-10-1.6-20.27-3.26-30.29-6-1.33-.36-2.69-.79-4-1.19A65.31,65.31,0,0,0,4.14,20c-.39-.06-.76-.11-1.08-.15-1.51-.15-2.4,0-2.8.59-.64.87,0,2.49,1.1,5a97,97,0,0,0,14.45,23c10,12.2,24.63,21.23,42.4,26.11C67,77,75,79.09,83.69,79.95l.62.06.23,0,5.56.52a135.34,135.34,0,0,1,20.82,3.35c7.25,1.87,14.91,4.36,21.77,9.89,5.9,4.75,12.59,10.13,12.16,18.85-.16,3.34-.27,6.7-.36,10.06a121.37,121.37,0,0,0-35.23,4.44C90.47,132.51,72,139.28,56.49,151.6c-14.15,11.26-25.72,33.49-27,51.67-1.74,24.24,19.3,37.88,41.35,38.21,8.39.13,17.09.13,25.4-1.15,10.84-1.67,20.64-4.89,31.72-4.24a72.21,72.21,0,0,1,26.93,6.49c5.8,2.77,11.82,5.63,18.09,7.17,2.27.56,5.22,1.37,7.54.55,3.67-1.3,1.95-2.44,2.74-5.26,2.94,1.08,4,1.15,6.55,3.2a31.48,31.48,0,0,0,8.26,4.89c6.21,2.52,11.62,1.6,17.42-1.58,4.6-2.52,8.47-3.17,13.57-4.37a41,41,0,0,0,15.34-7.5,40.8,40.8,0,0,0,6.42-5.27c2.81-3.16,4-7.87,6.81-10.81,3.19-3.28,8.79-4.33,12.59-6.78,1.93-1.25,13.21-7.87,8.42-9.6-5.33-1.93-10.66-3.79-16-5.73-2.33-.85-3.14-.26-4.18-2.35-.75-1.5-.3-4.5-.68-6.29-1.57-7.41-5.75-14-10.85-19.45-8.15-8.74-18.32-13.87-28.33-20s-18.27-14.79-28.19-21c-8.07-5-17-6.71-26.25-8.09-4.7-.7-9.45-1.19-14.22-1.44q.39-3.19,1-6.34c.14-.69.33-1.38.52-2s.37-1.32.51-2c1.19-5.72,3.51-9.85,6.2-14.63l1.28-2.29a30.47,30.47,0,0,0,1.4-3.06c1.36-3.29,2.65-6.4,6.47-6.24.76,0,1.55.09,2.4.17,2.07.2,4.19.54,6.23.87s4.21.67,6.34.88c1.14.11,2.19.18,3.19.2a138.14,138.14,0,0,0,37.77-4.48A192.92,192.92,0,0,0,259,70.6c14.71-7.05,27.17-12.64,40.17-17a116.29,116.29,0,0,1,21.58-4.52l.28,0c8-1.05,12.38-2.66,13.12-4.78C334.43,43.45,334.1,42.51,333.15,41.52ZM146.64,74.44c-.76-1.18-1.55-2.37-2.38-3.62C138.2,61.65,131.34,51.26,129.42,41a32.47,32.47,0,0,1,.21-14.13,47.4,47.4,0,0,1,2.2-6c.27-.65.55-1.32.82-2,.17-.42.4-1.17.66-2,.79-2.61,2-6.53,3.25-7.26.36.55-1,6.29-1.26,9.8a18.06,18.06,0,0,0,.37,4.7,53.7,53.7,0,0,0,4.59,17C145,51.73,149,62.32,146.64,74.44Zm2.23-9.5a46.72,46.72,0,0,0-.67-7.57A68.44,68.44,0,0,0,143,42.16C140,35.78,133.84,20,139,11.05a36.59,36.59,0,0,1,3,5.41,43.62,43.62,0,0,0,2.57,4.84,47.36,47.36,0,0,1,5.29,10.8c3.15,9.24,4.68,19.17,3.51,26.78l-.12.79c-.66,4.34-1.35,8.82-3.66,12.68A44.74,44.74,0,0,1,148.87,64.94ZM86.22,78.43l-5.62-.61a121,121,0,0,1-34-9.1c-8.17-3.57-19.46-9.64-26.91-18.33A132.82,132.82,0,0,1,10,37.15c-.29-.44-.69-1-1.15-1.67C6.4,31.93,1.8,25.35,2.56,22.13a19.23,19.23,0,0,1,2.84.08,55.11,55.11,0,0,1,11.29,2.85c1.81.59,3.52,1.15,5.17,1.59A164.62,164.62,0,0,0,41.46,31l2.07.29c14.24,2,27.69,3.88,41.12,8.73,12.65,4.57,23.08,12.13,33.54,20.14a65.4,65.4,0,0,1,12.35,12.93c.47.62,1,1.29,1.57,2,3.14,4,7.42,9.4,7.71,14.08A156.74,156.74,0,0,0,113.2,68.91,167.31,167.31,0,0,0,82.81,54.6h0a.1.1,0,0,0-.09.16c2,2.51,6,4.11,9.6,5.52,1.33.52,2.58,1,3.61,1.51C101.38,64.41,106.7,67,111.74,70c11.31,6.79,20.09,13.69,26.83,21.11a97.35,97.35,0,0,0-23.8-8.06C105.16,80.45,96,79.47,86.22,78.43ZM180.57,247c-1.62,2.29-5.75.57-7.78-.13a158.34,158.34,0,0,1-18.28-7.52c-8.35-4.13-18.34-5.7-27.63-6-14.14-.41-28,4.5-42.11,5.14-15.5.71-36.27-.27-46.47-14-7.27-9.81-6-23-2.54-34,5-15.7,14.35-30.55,27.8-40.19,20.55-14.73,49.72-24.68,75-25.38,1.92-.05,3.89-.09,5.88-.09-.07,3.18-.13,6.35-.19,9.48q0,1.81-.06,3.62c-.15,8.32-.05,17,.33,28.3.09,2.52.19,5.09.3,7.57.17,4,.35,8.23.43,12.34,0,1.37,0,2.7,0,4q-.56-2.5-1.3-5c-3.31-11-10.17-19.51-19-26.71-3.94-3.22-7.94-7.09-12.81-8.86-4.44-1.61-17.9-3.31-21.54.82,8.6-.5,17-1,25,3s15.07,11.7,20.07,19c8.16,11.84,9.12,27.44,6.52,41.32-8.67-1.9-18.44-.21-27.19.53-10.16.86-20.12,1.58-30.3.67-6.78-.61-14.57-1.08-20.73-4.34-3-1.61-5.2-4.25-8-6.24.52,5,7.16,8.11,11.11,9.67,9.09,3.61,19.42,4.34,29.11,3.87,23.38-1.15,46.41-5.6,68,6.69A38.39,38.39,0,0,1,177,235.72C178.46,237.89,182.52,244.28,180.57,247Zm-.84-117.47c13.15,4.61,23.26,16.51,35,23.81,9.18,5.72,19,10.8,26.89,18.31,7.42,7.07,18.39,20.91,12.65,31.5,7.54-.06,13.62,3.19,20.63,5.43-5.93,1.29-12.15,1.8-17.84,4a25.66,25.66,0,0,0-6.95,3.94c-1,.78-3.52,4.7-3,4.26a19.41,19.41,0,0,1,6.32-3.67c-1.59.88,13.83-6.07,20-6-5.24,5.93-15.31,7-19.55,13.42-1.71,2.59-2.19,5.81-4.19,8.27s-5.41,4.27-7.94,6.14c-5.79,4.27-11.48,5.77-18.35,7.21-9.63,2-14.42,8.37-24.89,4.52,2.53-3,10.31-1.57,8-5.36-.53-.85-5.67-3.93-6.89-3.08-2,1.43,1.42,4.72.51,5.87-2.67,3.37-8.22-.43-9.86-2.85-3-4.38-2.24-11.46-2.93-16.53-1.32-9.78-8.89-17.44-5-27.53a24.41,24.41,0,0,1,4.86-8.24c.66-.66,2.81-1.64,3.21-2.26,1.08-1.7.76-5.58,1.15-7.79.74-4.1,2-8.11,3-12.14.4,4.78-.37,9.69.71,14.4.35,1.51,3.71,11.06,6.19,10.11-1.33.5-4.62-14.74-4.72-16-.53-6.37.65-12.61,2.38-18.72,1.87,4.38,8.35,16.9,15,15.53-3.06-2.42-6-4.58-8.32-7.72-.89-1.18-5.45-10.66-6.57-10.73-3.57-.25-8.84,18.05-9.63,21.25s-.31,7.32-1.49,10.2c-.71,1.72-2.43,3.15-3.54,4.61-4.57,6.06-7,13-4.87,20.55-2.05-1.52-4.91-1.16-7.3-1.07-.65,0-4.64.7-5,.67,5.89,1.49,12,.91,15.78,6.78s2.56,16,3.53,22.57c-4.57-.56-5-3.55-7-7.09a32.69,32.69,0,0,0-8.72-10,49.8,49.8,0,0,0-11.88-6.57c-3.06-1.23-6.07-1-6.2-4a6.12,6.12,0,0,1,.43-2.21h0a.1.1,0,0,0,.11-.1c0-.07,0-.14,0-.22,1-2.53,3-5.5,3.77-7.16,1.35-2.78,2.76-5.53,4.09-8.33.68-1.42,5.45-9.72,4.18-11.08-.82-.88-6.27,10.3-10.07,18.14,0-.47,0-.93-.07-1.39a26.57,26.57,0,0,1-.06-3.21,79.68,79.68,0,0,0-.38-14.25c-.6-5.5-1.38-11.34-2.47-18.37-2.14-13.83-4-28.35-2.67-42.43C159.91,125.19,170.51,126.33,179.73,129.57Zm-31.8-2a158.38,158.38,0,0,0,.82,32.33c.43,3,.94,6,1.43,8.9.8,4.74,1.62,9.64,2.14,14.5.87,8,.45,16.34.05,24.37-.06,1.11-.11,2.25-.16,3.38-.2.39-.36.66-.45.81-1.11,1.66-2.36,3.27-4.61,2.88-1.54-.26-1.81-1.63-1.65-3.34,3.19-9,2.49-19.93,1.87-29.72-.18-2.79-.35-5.43-.43-8-.1-2.89-.24-5.83-.37-8.68-.25-5.28-.52-10.75-.49-16.12,0-10.45.27-20.91.51-30.65,0-1.22.1-2.48.18-3.69.09-1.52.18-3.09.19-4.63,0-7.24-7.85-14-14.11-18.57A72.77,72.77,0,0,1,147,98.64l0,0h0a.1.1,0,0,0,.06,0c2.19-4.28,1.78-11.8,1.28-17.09-.13-1.39-.22-5.26.9-6.38a1,1,0,0,1,.81-.3,1.92,1.92,0,0,1,.78.29c.55.33.76,2.87.63,7.55,0,.2,0,.36,0,.47a52.38,52.38,0,0,1-1.19,9.16,20.9,20.9,0,0,1-.68,2.35c-.69,2.1-1.41,4.27-.51,6a.1.1,0,0,0,.07.05h0a.1.1,0,0,0,.08,0A26.53,26.53,0,0,0,153.47,95c2.2-3.65,4.48-7.42,8.34-8.25C153.13,100.57,148.85,113.17,147.93,127.56ZM326.86,45.93,326,46c-22.9,2.56-43.71,12-63.84,21.22-6.72,3.06-13.66,6.23-20.62,9.1a140.08,140.08,0,0,1-43,9.92,114.4,114.4,0,0,1-19.35,0c-.86-.08-1.72-.18-2.55-.29-1.3-.17-2.62-.4-3.9-.62-1.76-.3-3.58-.61-5.38-.79a20.19,20.19,0,0,0-9.13.89c2.62-5.54,8.25-8.3,13.7-11l2-1A195.76,195.76,0,0,1,195,64.35a209.41,209.41,0,0,1,22.51-6.54l6.76-1.6,4-.95c.88-.21,1.87-.39,2.92-.58,3.14-.57,6.71-1.21,8.91-3a.1.1,0,0,0-.05-.17h0a227.69,227.69,0,0,0-39.48,8.76,206.87,206.87,0,0,0-36.79,15.84h0a12.66,12.66,0,0,0-5.57,4.62C162.76,66,171.74,55.3,185.63,48c7.13-3.74,15.07-5.82,22.75-7.82l.23-.06c3.14-.82,6.29-1.76,9.34-2.67a152.85,152.85,0,0,1,16.72-4.32c18.94-3.4,36.49-4.68,52.14-3.82,1.54.09,3.09.2,4.61.35a101.33,101.33,0,0,1,19.32,3.77,92.88,92.88,0,0,1,11.41,4.25c.42.19.95.41,1.56.65,3,1.23,7.55,3.08,8.25,5.51C330.63,45.58,328.71,45.75,326.86,45.93Z"/><path class="cls-8" d="M234.31,165.61l-.16,0a65.64,65.64,0,0,0-28.29,3c2.33,3,5.16,5.15,8.16,7.51-6.64,1.37-13.13-11.15-15-15.53-1.73,6.1-2.91,12.35-2.38,18.72.1,1.24,3.39,16.48,4.72,16-2.48.94-5.84-8.6-6.19-10.11-1.08-4.71-.31-9.63-.71-14.4-1,4-2.28,8-3,12.14-.4,2.21-.07,6.09-1.15,7.79-.4.62-2.55,1.6-3.21,2.26a24.41,24.41,0,0,0-4.86,8.24,16.09,16.09,0,0,0-1,4.71c12.59,2.72,23.23,13.58,34.64,19.68,9.43,5,19.66,9.36,30.18,10.43a18.27,18.27,0,0,0,3.66-3.21c2-2.45,2.48-5.68,4.19-8.27,4.24-6.41,14.31-7.49,19.55-13.42-6.14,0-21.56,6.92-20,6a19.41,19.41,0,0,0-6.32,3.67c-.56.44,2-3.48,3-4.26a25.66,25.66,0,0,1,6.95-3.94c5.69-2.22,11.91-2.73,17.84-4-7-2.24-13.09-5.49-20.63-5.43,5.75-10.59-5.23-24.43-12.65-31.5a70.18,70.18,0,0,0-7.43-6.1"/><path class="cls-9" d="M208.88,213.38c-1.1-2-7.08-5.11-9.27-5.91a25.88,25.88,0,0,0,5.33,6.94c3.43,3.36,1.24,4.53,1.68,8.91C207.42,221.05,210,215.57,208.88,213.38Z"/><path class="cls-9" d="M221.07,232.22c4.82-3.5,9.35-1.24,14,.44-1.39-1-6.28-5.77-7.89-5.69C225.23,226.89,222.17,230.76,221.07,232.22Z"/></g></g></svg>