<svg xmlns="http://www.w3.org/2000/svg" viewBox="0 0 300 331.77"><defs><style>.cls-1{fill:#e0e4d6;}.cls-2{fill:#bacca2;}.cls-3{fill:#998a5c;}.cls-4{fill:#62853b;}.cls-5{fill:#4d5b2f;}.cls-6{fill:gray;}.cls-7{fill:#606060;}.cls-8{fill:#231f20;}</style></defs><title>Asset 9</title><g id="Layer_2" data-name="Layer 2"><g id="Layer_1-2" data-name="Layer 1"><ellipse class="cls-1" cx="140.05" cy="191.75" rx="140.05" ry="140.02"/><path class="cls-2" d="M3.38,161.09a140,140,0,1,0,273.33,0C236.36,149.57,189.73,143,140,143S43.73,149.57,3.38,161.09Z"/><path class="cls-3" d="M127.36,73.08C132.74,77,139.5,82.78,139.44,89c0,1.31-.06,2.69-.19,3.94-.06,1.06-.13,2.13-.13,3.13-.19,8.32-.38,17.33-.44,26.28,0,4.63.19,9.26.44,13.83.13,2.44.25,4.94.31,7.45.06,2.19.19,4.44.38,6.82.56,8.38,1.13,17.77-1.63,25.47-.13,1.44.13,2.63,1.44,2.88,1.94.31,3-1.06,3.94-2.44.06-.13.19-.38.38-.69.06-1,.06-1.94.13-2.88.31-6.88.69-14-.06-20.9-.44-4.19-1.13-8.38-1.81-12.45-.44-2.5-.88-5.07-1.25-7.63a135.89,135.89,0,0,1-.69-27.72c.81-12.33,4.44-23.09,11.89-35-3.32.69-5.26,3.94-7.13,7.07A21.38,21.38,0,0,1,141.44,81h-.06a.06.06,0,0,1-.06-.06c-.75-1.5-.19-3.38.44-5.19a13.93,13.93,0,0,0,.56-2,40.54,40.54,0,0,0,1-7.82v-.38c.13-4-.06-6.19-.56-6.44a1.54,1.54,0,0,0-.69-.25.94.94,0,0,0-.69.25c-.94.94-.88,4.25-.75,5.44.44,4.51.75,10.95-1.13,14.64a.06.06,0,0,1-.06.06h-.06A59.46,59.46,0,0,0,127.36,73.08Z"/><path class="cls-4" d="M157,67.2c1.56.13,3.07.44,4.63.69,1.13.19,2.25.38,3.32.5.69.06,1.44.19,2.19.25a97,97,0,0,0,16.58.06,119.82,119.82,0,0,0,36.86-8.51c5.95-2.44,11.89-5.19,17.65-7.82,17.27-7.88,35-16,54.7-18.15.25,0,.5-.06.69-.06,1.56-.13,3.25-.31,4.38-1.75-.63-2.06-4.51-3.69-7.07-4.69a9.16,9.16,0,0,1-1.31-.56,78.53,78.53,0,0,0-9.76-3.63,88.79,88.79,0,0,0-16.52-3.25c-1.31-.13-2.63-.25-3.94-.31a193.08,193.08,0,0,0-44.75,3.25,133.55,133.55,0,0,0-14.33,3.69c-2.63.75-5.32,1.56-8,2.32l-.19.06c-6.57,1.69-13.39,3.5-19.46,6.7C160.72,42.24,153,51.43,149.14,64a10.41,10.41,0,0,1,4.76-3.94,176.3,176.3,0,0,1,31.54-13.58A195.28,195.28,0,0,1,219.24,39a.06.06,0,0,1,.06.06v.13c-1.88,1.56-4.94,2.06-7.64,2.57-.88.19-1.75.31-2.5.5-1.13.25-2.32.56-3.44.81-1.88.44-3.88.94-5.82,1.38a166,166,0,0,0-19.28,5.63,153.16,153.16,0,0,0-18.09,7.82c-.56.25-1.13.56-1.69.81-4.69,2.25-9.51,4.63-11.77,9.39A15.83,15.83,0,0,1,157,67.2Z"/><path class="cls-4" d="M129.8,15.46a13.36,13.36,0,0,1-.31-4c.25-3,1.38-7.95,1.06-8.38-1.06.63-2.13,4-2.75,6.19-.25.75-.44,1.38-.56,1.75-.25.56-.44,1.13-.69,1.69a38.83,38.83,0,0,0-1.88,5.13,27.79,27.79,0,0,0-.19,12.08c1.63,8.82,7.51,17.71,12.7,25.59.69,1.06,1.38,2.06,2.07,3.13,2.07-10.39-1.44-19.46-5.44-28.59A46.13,46.13,0,0,1,129.8,15.46Z"/><path class="cls-4" d="M21.16,25.22c.38.56.75,1.06,1,1.44A110.68,110.68,0,0,0,30.48,38c6.38,7.45,16.08,12.64,23,15.71a104.41,104.41,0,0,0,29.1,7.82c1.63.19,3.25.38,4.82.5,8.32.88,16.21,1.75,24.47,4a85.27,85.27,0,0,1,20.4,6.88c-5.76-6.32-13.27-12.26-23-18.08C105,52.25,100.45,50,95.76,47.74c-.88-.44-1.94-.88-3.07-1.31-3.07-1.19-6.57-2.57-8.2-4.76v-.13l.06-.06a142,142,0,0,1,26,12.26,133.45,133.45,0,0,1,22.78,17.33c-.25-4-3.94-8.63-6.63-12.08q-.75-.94-1.31-1.69a56.65,56.65,0,0,0-10.58-11.08C105.9,39.36,96.95,32.91,86.12,29c-11.52-4.13-23-5.76-35.23-7.51l-1.75-.25a130.8,130.8,0,0,1-16.77-3.75c-1.44-.38-2.88-.88-4.44-1.38a45.94,45.94,0,0,0-9.7-2.44,16.78,16.78,0,0,1-2.44.13C15.15,16.52,19.09,22.15,21.16,25.22Z"/><path class="cls-5" d="M141.94,22.34a43.59,43.59,0,0,0-4.51-9.26,43.06,43.06,0,0,1-2.19-4.13,27.52,27.52,0,0,0-2.57-4.63c-4.38,7.7.94,21.15,3.38,26.66a57.77,57.77,0,0,1,4.51,13,37.54,37.54,0,0,1,.56,6.51,34.91,34.91,0,0,0,.56,6.32c2-3.32,2.57-7.13,3.13-10.89l.13-.69C145.95,38.73,144.64,30.22,141.94,22.34Z"/><path class="cls-6" d="M137.31,101.8c-1.69,0-3.38.06-5,.06-21.65.63-46.63,9.14-64.21,21.71-11.52,8.26-19.59,21-23.84,34.41-2.94,9.45-4.07,20.71,2.19,29.1,8.76,11.76,26.54,12.64,39.8,12,12.14-.56,24-4.76,36-4.38,7.95.25,16.52,1.56,23.66,5.13a130.56,130.56,0,0,0,15.65,6.44c1.75.63,5.26,2.06,6.7.13,1.69-2.38-1.81-7.82-3.07-9.7a33.83,33.83,0,0,0-10.89-9.51c-18.52-10.51-38.24-6.7-58.27-5.76-8.32.44-17.15-.25-25-3.32-3.38-1.31-9.07-4-9.51-8.26,2.38,1.69,4.19,3.94,6.82,5.32,5.26,2.82,12,3.19,17.77,3.69,8.7.75,17.27.19,26-.56,7.51-.63,15.9-2.06,23.28-.44,2.25-11.89,1.44-25.22-5.57-35.42-4.26-6.19-10.39-12.7-17.21-16.27s-14-3-21.4-2.63c3.13-3.57,14.64-2.06,18.46-.69,4.19,1.5,7.57,4.82,11,7.57,7.57,6.19,13.39,13.45,16.27,22.9.44,1.38.81,2.82,1.13,4.25,0-1.06,0-2.25-.06-3.38-.06-3.5-.25-7.13-.38-10.57-.06-2.13-.19-4.32-.25-6.51-.31-9.64-.44-17.08-.25-24.21,0-1.06.06-2.06.06-3.13C137.19,107.25,137.25,104.56,137.31,101.8Z"/><path class="cls-6" d="M173.49,203.17c-.81-5.63.13-14.39-3-19.33S162,179.33,157,178c.31,0,3.69-.56,4.26-.56,2.07-.06,4.51-.38,6.26.94-1.88-6.51.25-12.39,4.19-17.58.94-1.25,2.44-2.5,3-3.94,1-2.44.63-6,1.25-8.76s5.19-18.4,8.26-18.21c.94.06,4.88,8.2,5.63,9.2a35.93,35.93,0,0,0,7.13,6.63c-5.7,1.19-11.27-9.57-12.83-13.33a45,45,0,0,0-2.07,16c.06,1.06,2.88,14.14,4.07,13.7-2.13.81-5-7.38-5.32-8.63-.94-4.07-.25-8.26-.63-12.33-.88,3.44-1.94,6.88-2.57,10.39-.31,1.88-.06,5.19-1,6.7-.31.56-2.19,1.38-2.75,1.94a21.84,21.84,0,0,0-4.19,7.07c-3.32,8.63,3.19,15.2,4.32,23.59.56,4.32,0,10.39,2.5,14.14,1.38,2.06,6.13,5.32,8.45,2.44.75-1-2.19-3.82-.44-5,1.06-.75,5.44,1.94,5.88,2.63,2,3.25-4.63,2-6.82,4.57,8.95,3.32,13.08-2.13,21.34-3.88,5.88-1.25,10.76-2.5,15.71-6.19,2.19-1.63,5.07-3.19,6.82-5.26s2.13-4.88,3.57-7.07c3.63-5.51,12.27-6.44,16.77-11.51-5.26,0-18.46,5.94-17.09,5.19a17.78,17.78,0,0,0-5.44,3.13c-.5.38,1.69-3,2.57-3.63a21.51,21.51,0,0,1,5.95-3.38c4.88-1.88,10.2-2.32,15.27-3.44-6-1.94-11.2-4.69-17.65-4.63,4.94-9.07-4.51-20.9-10.83-27-6.76-6.44-15.15-10.76-23-15.71-10-6.26-18.71-16.46-30-20.4-7.89-2.75-17-3.75-25.72-3.94-1.19,12.08.44,24.53,2.25,36.35.94,6,1.63,11,2.13,15.71a67.23,67.23,0,0,1,.31,12.2,20.45,20.45,0,0,0,.06,2.75c0,.38.06.81.06,1.19,3.25-6.7,7.95-16.27,8.64-15.52,1.06,1.19-3,8.26-3.57,9.51-1.13,2.38-2.38,4.76-3.5,7.13-.69,1.44-2.38,3.94-3.25,6.13v.25h-.06a5.85,5.85,0,0,0-.38,1.88c.13,2.57,2.69,2.38,5.32,3.44a44,44,0,0,1,10.2,5.63,27.24,27.24,0,0,1,7.45,8.57C169.17,200.1,169.54,202.67,173.49,203.17Z"/><path class="cls-5" d="M214.79,39.61a191.2,191.2,0,0,0-29.35,6.88A176.3,176.3,0,0,0,153.9,60.07,11.38,11.38,0,0,0,149.14,64,48.4,48.4,0,0,1,157,48.62C153.58,53,194.7,39,214.79,39.61Z"/><path class="cls-5" d="M119.29,50.24a62.9,62.9,0,0,1,6.13,7.2c.38.5.88,1.13,1.31,1.69,2.69,3.38,6.38,8.07,6.63,12.08a140,140,0,0,0-12.83-10.7c.88.31,1.69.69,1.88.25.44-.94,0-3.07-.5-4.19C121,54.5,120.16,52.37,119.29,50.24Z"/><path class="cls-5" d="M261.79,42.3c-8.07,3.07-15.9,6.63-23.59,10.14-5.76,2.63-11.7,5.32-17.65,7.82a120.25,120.25,0,0,1-36.86,8.51,96.93,96.93,0,0,1-16.58-.06c-.75-.06-1.5-.19-2.19-.25-1.13-.13-2.25-.31-3.32-.5-1.5-.25-3.07-.5-4.63-.69a17.32,17.32,0,0,0-7.82.75c2.25-4.76,7.07-7.13,11.77-9.39.56-.25,1.13-.56,1.69-.81,1.69-.81,3.32-1.63,5-2.44a3.8,3.8,0,0,0-.19,2.63c.69,2.06,3.07,2.94,5.19,3.32,13.64,2.57,27.41-2.38,40.68-6.63A382.72,382.72,0,0,1,261.79,42.3Z"/><path class="cls-5" d="M132.31,72.89c-3.38-3.75-4.94-6.26-9.64-9.76-9.26-4.44-33-5.38-42.87-7.45-23.72-4.88-34.86-7.95-51.88-21,.81,1.06,1.69,2.13,2.57,3.19,6.38,7.51,16.08,12.7,23,15.77a104.41,104.41,0,0,0,29.1,7.82c1.63.19,3.25.38,4.82.5,8.32.88,16.21,1.75,24.47,4L123,69.08A91.24,91.24,0,0,1,132.31,72.89Z"/><path class="cls-7" d="M137.25,133c.06,1.38.06,2.82.13,4.32.06,2.19.19,4.38.25,6.51.13,3.44.31,7.07.38,10.57,0,1.19.06,2.32.06,3.38-.31-1.44-.69-2.82-1.13-4.25A42.55,42.55,0,0,0,128.36,138c1.06.81,2.13,1.69,3.25,2.5.81.63,1.88,1.31,2.88.94s1.38-1.63,1.63-2.69Z"/><path class="cls-7" d="M62,170.82a63.65,63.65,0,0,0,6.32,4.44c5.26,2.82,12,3.19,17.77,3.69a134.75,134.75,0,0,0,23-.31C94.32,178.45,76.54,177.26,62,170.82Z"/><path class="cls-7" d="M174.49,197.47c.19,2.75.69,5.44,2.07,7.45s6.13,5.32,8.45,2.44c.38-.5-.13-1.44-.56-2.38a1.66,1.66,0,0,1-.38.31,2.63,2.63,0,0,1-1.81-.13A12.47,12.47,0,0,1,174.49,197.47Z"/><path class="cls-7" d="M167,170.76c-.44,2.44.44,5.82,1.19,8.45a5.9,5.9,0,0,0-4.57-1.5C165.79,175.7,165.48,173.2,167,170.76Z"/><path class="cls-7" d="M146.2,153.61a.79.79,0,0,0,.06.38,67.23,67.23,0,0,1,.31,12.2,20.45,20.45,0,0,0,.06,2.75c0,.38.06.81.06,1.19,1.69-3.44,3.76-7.7,5.44-10.82a6.65,6.65,0,0,1-.69.56,1.91,1.91,0,0,1-1.25.44c-.31-.06-.56-.38-.81-.63A24.56,24.56,0,0,1,146.2,153.61Z"/><path class="cls-7" d="M191.76,210.3a14.28,14.28,0,0,1-8.2-.75c1.38-1.63,4.51-1.75,6.13-2.44a1.92,1.92,0,0,0-.19,1.44,2.45,2.45,0,0,0,1.44,1.5A5.82,5.82,0,0,0,191.76,210.3Z"/><path class="cls-7" d="M162.66,190.78a26.43,26.43,0,0,1,4.82,6.32c1.69,3,2.07,5.63,5.95,6.07-.81-5.63.13-14.39-3-19.33a9.83,9.83,0,0,0-2.25-2.5,18.08,18.08,0,0,1,.31,11.07A12.72,12.72,0,0,1,162.66,190.78Z"/><path class="cls-7" d="M167,170.88a22.61,22.61,0,0,1,4.63-10.14c.94-1.25,2.44-2.5,3-3.94.94-2.32.63-5.57,1.19-8.2-3.25,3.13-8.14,4.32-12.45,6a40.81,40.81,0,0,0-9.45,5.19c-.88,1.88-1.88,3.69-2.19,4.19-1.06,2.25-2.19,4.51-3.32,6.7.94-.25,2.07-.38,2.63-.56a9.82,9.82,0,0,1,3.32-.31A121.61,121.61,0,0,1,167,170.88Z"/><path class="cls-7" d="M64.15,153.3a142,142,0,0,0,21.4,3h.69l4.63.19a136.35,136.35,0,0,1,17.46,1.75c6.13,1.13,12.64,2.38,18.52,6.32,6.2,4.19,8.32,6.32,9.2,8.82.13-1.13,1.25-3.57,1.31-4.69C135.75,163,131.81,156.61,127,151c-4.26-5.07-9.64-9-16.08-12.89a110.6,110.6,0,0,0-40.8-14.45c-.63-.13-1.31-.19-1.94-.25-.06.06-.13.06-.19.13-8.76,6.26-15.52,15.14-20.15,25A80.79,80.79,0,0,0,64.15,153.3Z"/><path class="cls-8" d="M293.59,34.16c-.25,0-.5.06-.69.06-19.59,2.19-37.43,10.32-54.7,18.15-5.76,2.63-11.7,5.32-17.65,7.82a120.25,120.25,0,0,1-36.86,8.51,97,97,0,0,1-16.58-.06c-.75-.06-1.5-.19-2.19-.25-1.13-.13-2.25-.31-3.32-.5-1.5-.25-3.07-.5-4.63-.69a17.32,17.32,0,0,0-7.82.75c2.25-4.76,7.07-7.13,11.77-9.39.56-.25,1.13-.56,1.69-.81a183.43,183.43,0,0,1,18.09-7.82A179.35,179.35,0,0,1,200,44.3c1.94-.44,3.88-.94,5.82-1.38,1.13-.25,2.32-.56,3.44-.81.75-.19,1.63-.31,2.5-.5,2.69-.5,5.76-1.06,7.64-2.57a.09.09,0,0,0,0-.13l-.06-.06a195.26,195.26,0,0,0-33.8,7.51A176.3,176.3,0,0,0,154,59.94a11.38,11.38,0,0,0-4.76,3.94c3.88-12.64,11.58-21.77,23.47-28,6.13-3.19,12.89-5,19.46-6.7l.19-.06c2.69-.69,5.38-1.5,8-2.32a133.55,133.55,0,0,1,14.33-3.69,192.34,192.34,0,0,1,44.69-3.25c1.31.06,2.63.19,3.94.31a82.21,82.21,0,0,1,16.52,3.25A75,75,0,0,1,289.58,27a13.79,13.79,0,0,0,1.31.56c2.57,1.06,6.45,2.63,7.07,4.69C296.84,33.85,295.21,34,293.59,34.16Zm-153.27,70a136,136,0,0,0,.69,27.72c.38,2.57.81,5.13,1.25,7.63.69,4.07,1.38,8.26,1.81,12.45.75,6.88.38,14,.06,20.9-.06.94-.13,1.94-.13,2.88-.19.31-.31.56-.38.69-.94,1.44-2,2.82-3.94,2.44-1.31-.25-1.56-1.38-1.44-2.88,2.75-7.7,2.13-17.08,1.63-25.47-.13-2.38-.31-4.63-.38-6.82-.06-2.5-.19-5-.31-7.45-.19-4.51-.44-9.2-.44-13.83.06-8.95.25-17.9.44-26.28,0-1.06.06-2.13.13-3.13.06-1.31.19-2.63.19-3.94,0-6.19-6.76-12-12.08-15.89a60.73,60.73,0,0,1,12.14,6.26h.06a.06.06,0,0,0,.06-.06c1.88-3.69,1.5-10.14,1.13-14.64-.13-1.19-.19-4.51.75-5.44a.74.74,0,0,1,.69-.25,1.86,1.86,0,0,1,.69.25c.44.25.63,2.44.56,6.44v.38a46.09,46.09,0,0,1-1,7.82c-.13.63-.38,1.31-.56,2-.56,1.81-1.19,3.63-.44,5.19l.06.06h.06a23.44,23.44,0,0,0,3.57-4.88c1.88-3.13,3.82-6.38,7.13-7.07C144.76,81,141.13,91.79,140.32,104.12Zm27.22,1.69c11.27,3.94,19.9,14.14,30,20.4,7.89,4.88,16.27,9.26,23,15.71,6.38,6.07,15.77,17.9,10.83,27,6.45-.06,11.64,2.75,17.65,4.63-5.07,1.13-10.39,1.56-15.27,3.44a21.51,21.51,0,0,0-5.95,3.38c-.81.69-3,4-2.57,3.63a16,16,0,0,1,5.44-3.13c-1.38.75,11.83-5.19,17.09-5.19-4.51,5.07-13.14,6-16.77,11.51-1.44,2.19-1.88,5-3.57,7.07s-4.63,3.63-6.82,5.26c-4.94,3.63-9.83,4.94-15.71,6.19-8.26,1.75-12.33,7.2-21.34,3.88,2.19-2.63,8.82-1.38,6.82-4.57-.44-.75-4.88-3.38-5.88-2.63-1.75,1.25,1.19,4.07.44,5-2.32,2.88-7.07-.38-8.45-2.44-2.57-3.75-1.94-9.82-2.5-14.14-1.13-8.38-7.64-15-4.32-23.59a21.39,21.39,0,0,1,4.19-7.07c.56-.56,2.38-1.38,2.75-1.94.94-1.44.63-4.76,1-6.7.63-3.5,1.69-6.95,2.57-10.39.38,4.07-.31,8.32.63,12.33.31,1.31,3.19,9.45,5.32,8.63-1.13.44-3.94-12.64-4.07-13.7a44.82,44.82,0,0,1,2.07-16c1.63,3.75,7.13,14.45,12.83,13.33a35.93,35.93,0,0,1-7.13-6.63c-.75-1-4.69-9.14-5.63-9.2-3.07-.19-7.57,15.46-8.26,18.21s-.25,6.26-1.25,8.76c-.63,1.5-2.07,2.69-3,3.94-3.94,5.19-6,11.14-4.19,17.58-1.75-1.31-4.19-1-6.26-.94-.56,0-4,.63-4.26.56,5.07,1.25,10.33.75,13.52,5.82s2.19,13.7,3,19.33c-3.94-.5-4.32-3.07-5.95-6.07a28.06,28.06,0,0,0-7.45-8.57,41.58,41.58,0,0,0-10.2-5.63c-2.63-1.06-5.19-.81-5.32-3.44a5.54,5.54,0,0,1,.38-1.88H145v-.25c.81-2.19,2.57-4.69,3.25-6.13,1.13-2.38,2.38-4.76,3.5-7.13.56-1.19,4.69-8.32,3.57-9.51-.69-.75-5.38,8.82-8.64,15.52,0-.38-.06-.81-.06-1.19a20.45,20.45,0,0,1-.06-2.75,67.23,67.23,0,0,0-.31-12.2c-.5-4.69-1.19-9.7-2.13-15.71-1.81-11.83-3.44-24.28-2.25-36.35C150.58,102.05,159.66,103.05,167.54,105.81Zm.75,100.61c-1.38,1.94-4.94.5-6.7-.13a126.51,126.51,0,0,1-15.65-6.44c-7.13-3.57-15.71-4.88-23.66-5.13-12.14-.38-24,3.88-36,4.38-13.27.63-31.1-.25-39.8-12-6.2-8.38-5.13-19.65-2.19-29.1,4.26-13.45,12.27-26.15,23.84-34.41,17.59-12.64,42.62-21.15,64.21-21.71,1.63-.06,3.32-.06,5-.06-.06,2.75-.13,5.44-.19,8.13,0,1.06-.06,2.06-.06,3.13-.13,7.13-.06,14.58.25,24.21.06,2.19.19,4.38.25,6.51.13,3.44.31,7.07.38,10.57,0,1.19.06,2.32.06,3.38-.31-1.44-.69-2.82-1.13-4.25-2.82-9.45-8.7-16.71-16.27-22.9-3.38-2.75-6.82-6.07-11-7.57-3.82-1.38-15.33-2.82-18.46.69,7.38-.44,14.58-.88,21.4,2.63s12.89,10,17.21,16.27c7,10.14,7.82,23.53,5.57,35.42-7.45-1.63-15.77-.19-23.28.44-8.7.75-17.21,1.38-26,.56-5.82-.5-12.52-.94-17.77-3.69-2.63-1.38-4.44-3.63-6.82-5.32.44,4.25,6.13,6.95,9.51,8.26,7.82,3.07,16.65,3.69,25,3.32,20-1,39.74-4.82,58.27,5.76a32.49,32.49,0,0,1,10.89,9.51C166.48,198.6,170,204,168.29,206.42ZM87.43,62c-1.56-.19-3.19-.31-4.82-.5a104.42,104.42,0,0,1-29.1-7.82c-6.95-3.07-16.65-8.26-23-15.71a110.67,110.67,0,0,1-8.32-11.33c-.25-.38-.56-.88-1-1.44-2.13-3.07-6.07-8.7-5.44-11.45a16.29,16.29,0,0,1,2.44.06,46.9,46.9,0,0,1,9.7,2.44c1.56.5,3,1,4.44,1.38A145.12,145.12,0,0,0,49.07,21.4l1.75.25C63,23.34,74.54,25,86.06,29.16c10.83,3.94,19.78,10.39,28.73,17.27A56.65,56.65,0,0,1,125.36,57.5c.38.5.88,1.13,1.31,1.69,2.69,3.38,6.38,8.07,6.63,12.08a135.94,135.94,0,0,0-22.78-17.33,146.25,146.25,0,0,0-26-12.26.06.06,0,0,0-.06.06v.13c1.69,2.13,5.13,3.5,8.2,4.76,1.13.44,2.19.88,3.07,1.31,4.69,2.25,9.26,4.51,13.58,7.07,9.7,5.82,17.21,11.7,23,18.08a82.59,82.59,0,0,0-20.4-6.88C103.64,63.76,95.82,62.88,87.43,62Zm53.7-11.58a38.08,38.08,0,0,0-.56-6.51,57.77,57.77,0,0,0-4.51-13c-2.5-5.44-7.82-19-3.38-26.66a32.75,32.75,0,0,1,2.57,4.63A36.73,36.73,0,0,0,137.44,13a38.33,38.33,0,0,1,4.51,9.26c2.69,7.95,4,16.39,3,23l-.13.69c-.56,3.69-1.13,7.57-3.13,10.89A36.12,36.12,0,0,1,141.13,50.43Zm-1.94,8.13c-.63-1-1.31-2-2.07-3.13-5.13-7.82-11-16.71-12.64-25.53a27.79,27.79,0,0,1,.19-12.08,38.83,38.83,0,0,1,1.88-5.13c.25-.56.5-1.13.69-1.69.13-.38.31-1,.56-1.75.69-2.25,1.69-5.57,2.75-6.19.31.44-.81,5.38-1.06,8.38a15.66,15.66,0,0,0,.31,4A45.2,45.2,0,0,0,133.75,30C137.81,39.17,141.26,48.18,139.19,58.57ZM299,30.41c-2.32-2.38-6.82-4.07-10.39-5.44-.75-.31-1.44-.56-2.13-.81a81.07,81.07,0,0,0-12.45-3.75,86,86,0,0,0-10.26-1.56,128.31,128.31,0,0,0-16.52-.44,255.23,255.23,0,0,0-27.16,2.38,156.05,156.05,0,0,0-20.4,4.76l-6.82,1.88C186,29.22,178.74,31.29,172,34.54A45,45,0,0,0,146.83,65c-.19.94-.38,1.81-.56,2.69a26.19,26.19,0,0,1-2.44,8.07,28.16,28.16,0,0,1,.5-6,29.87,29.87,0,0,0,.5-4.69c0-1.31-.06-2.63-.13-3.88a27.75,27.75,0,0,1,.19-6.82c1.44-8.2,2.07-14.89.94-22.65a45.14,45.14,0,0,0-5.38-16.46c-.19-.31-.56-1.06-1.06-1.94C135.75,6.51,132.18.13,131,0h-.06c-1.44.25-3,3.94-3.76,6.13-.19.63-.88,2.19-1.06,2.63a45.16,45.16,0,0,0-3.25,10.07,31.81,31.81,0,0,0,2.38,19.08,165.72,165.72,0,0,0,7.95,15.14c.81,1.38,1.63,2.82,2.44,4.25.25.5.56,1,.81,1.44a24.17,24.17,0,0,1,3.07,6.88c.5,2.63.56,8.38-1.06,10.51-1.75-.56-2.69-3.32-3.44-5.57a17.25,17.25,0,0,0-.75-2,71.34,71.34,0,0,0-5.82-9.89,74,74,0,0,0-15.71-16.27,101.51,101.51,0,0,0-41-19.21C65.78,22,59.65,21,53.76,20a260.74,260.74,0,0,1-26-5.13c-1.13-.31-2.32-.69-3.44-1A49.48,49.48,0,0,0,17.09,12a4.82,4.82,0,0,0-.94-.13c-1.31-.13-2.07.06-2.38.5-.56.75,0,2.13.94,4.32A85.41,85.41,0,0,0,27.1,36.35C35.68,46.8,48.19,54.56,63.4,58.69c7.51,2.06,14.33,3.82,21.84,4.57.19,0,.38.06.5.06h.19c1.56.13,3.19.31,4.76.44a112.24,112.24,0,0,1,17.84,2.88c6.2,1.63,12.77,3.75,18.65,8.45,5.07,4.07,10.76,8.7,10.45,16.14-.13,2.88-.25,5.76-.31,8.63a104.22,104.22,0,0,0-30.17,3.82c-16.08,4.63-31.92,10.39-45.19,21-12.14,9.64-22,28.66-23.16,44.24-1.5,20.77,16.52,32.47,35.42,32.72,7.2.13,14.64.13,21.78-1,9.26-1.44,17.71-4.19,27.16-3.63a61.34,61.34,0,0,1,23.09,5.57c4.94,2.38,10.14,4.82,15.52,6.13,1.94.5,4.44,1.19,6.45.5,3.13-1.13,1.69-2.06,2.38-4.51,2.5.94,3.44,1,5.63,2.75a27.78,27.78,0,0,0,7.07,4.19c5.32,2.13,10,1.38,15-1.38,3.94-2.19,7.26-2.69,11.64-3.75A35.82,35.82,0,0,0,223.05,200a38.43,38.43,0,0,0,5.51-4.51c2.44-2.69,3.38-6.76,5.82-9.26,2.75-2.82,7.51-3.69,10.76-5.82,1.63-1.06,11.33-6.76,7.2-8.2l-13.71-4.88c-2-.75-2.69-.25-3.57-2-.63-1.31-.25-3.88-.56-5.38-1.31-6.32-4.94-12-9.33-16.64-7-7.51-15.71-11.89-24.28-17.14s-15.65-12.64-24.16-18c-6.88-4.32-14.58-5.76-22.47-6.95-4-.63-8.07-1-12.2-1.25.25-1.81.5-3.63.88-5.44.13-.56.31-1.19.44-1.75s.31-1.13.44-1.69c1-4.88,3-8.45,5.32-12.51.38-.63.75-1.31,1.13-1.94.44-.81.81-1.75,1.19-2.63,1.19-2.82,2.25-5.51,5.57-5.32.63,0,1.31.06,2.07.13,1.75.19,3.57.44,5.32.75s3.63.56,5.44.75c1,.13,1.88.13,2.75.19A117.88,117.88,0,0,0,205,66.76a166.55,166.55,0,0,0,30.6-11.39c12.58-6.07,23.28-10.82,34.42-14.52A102.6,102.6,0,0,1,288.45,37l.25-.06c6.82-.88,10.58-2.25,11.27-4.07A2.74,2.74,0,0,0,299,30.41Z"/><path class="cls-7" d="M214.29,136.65h-.13a55.81,55.81,0,0,0-24.22,2.57,40.45,40.45,0,0,0,7,6.44c-5.7,1.19-11.27-9.57-12.83-13.33a45,45,0,0,0-2.07,16c.06,1.06,2.88,14.14,4.07,13.7-2.13.81-5-7.38-5.32-8.63-.94-4.07-.25-8.26-.63-12.33-.88,3.44-1.94,6.88-2.57,10.39-.31,1.88-.06,5.19-1,6.7-.31.56-2.19,1.38-2.75,1.94a21.84,21.84,0,0,0-4.19,7.07,14,14,0,0,0-.88,4c10.76,2.32,19.9,11.64,29.66,16.83,8.07,4.32,16.84,8,25.85,8.95a14.94,14.94,0,0,0,3.13-2.75c1.69-2.13,2.13-4.88,3.57-7.07,3.63-5.51,12.27-6.44,16.77-11.51-5.26,0-18.46,5.94-17.09,5.19a17.78,17.78,0,0,0-5.44,3.13c-.5.38,1.69-3,2.57-3.63a21.5,21.5,0,0,1,5.95-3.38c4.88-1.88,10.2-2.32,15.27-3.44-6-1.94-11.2-4.69-17.65-4.63,4.94-9.07-4.51-20.9-10.83-27a56.42,56.42,0,0,0-6.38-5.19"/><path class="cls-8" d="M192.58,177.64c-.94-1.75-6.07-4.38-7.95-5.07a22.18,22.18,0,0,0,4.57,5.94c2.94,2.88,1.06,3.88,1.44,7.63C191.32,184.21,193.58,179.52,192.58,177.64Z"/><path class="cls-8" d="M203,193.78c4.13-3,8-1.06,12,.38-1.19-.88-5.38-4.94-6.76-4.88C206.59,189.21,204,192.53,203,193.78Z"/><path class="cls-8" d="M128.77,242.86c.92,1.73,1.37,3.57.36,4.83l.36,1.52q.54.89-.47,1.38l-.47.55q.24,1.65.47,2.76a4.08,4.08,0,0,0-.83,3.58,6.68,6.68,0,0,0-1.42-1.65c-.26.76.49,2.69.71,3.45-.4-.28-.83-.6-1.3-1l-.47,1q.21,1.18.47,2.34v.14a3.11,3.11,0,0,0-.71,2.89h-.95a3,3,0,0,0-.12,2.07h.12v.14l-1.3-.83a7.6,7.6,0,0,1-1.18,4.55,1.66,1.66,0,0,0-1.3,2.07h-.83l-.59,1.65c0-.18-.08-.28-.24-.28a.63.63,0,0,1,.12.41c-.23,1.89-2.11,1.83-3.32,2.76q-1.06,1.5-2.25,2.89c-2.16,0-1.67,3.57-4.26,2.07q-.25-.68-.83-.28a1.1,1.1,0,0,0-.36.55,1.64,1.64,0,0,1-2.13.83c-4.83-1.38-13.39-2.77-15-8.55a3.5,3.5,0,0,0-.36-.69c-2.76-.87-2.69-3.53-4.14-5.65l-.59-1.1a10.64,10.64,0,0,0-1.18-3.17,16.62,16.62,0,0,1-.59-1.65L83.18,260a4.3,4.3,0,0,1-.47-3v-1.1c.49-2.27-.76-7.52-.83-10.2,2.15-10,2.5-25.48,11.84-32.39,2.65-3.48,7.83-7.44,12.43-7.44,1.33.22,7.31,1.3,8.17.55,1.73,1.15,4.17,1,5.71,2.1,1.84,1.31,2.08,3.07,3.64,4.52.89,1,1.82.68,2.13,2.48a4,4,0,0,0,.59,1.79,2.07,2.07,0,0,1,.59,1.65v.41a20.91,20.91,0,0,1,1.78,4.41c0,1.59.83,3.2.83,4.82a3.19,3.19,0,0,1-.59,1,.61.61,0,0,0,.12.41c1.66,1.45,2,9.27.59,10.89a19.94,19.94,0,0,0,.83,1.93A5.82,5.82,0,0,1,128.77,242.86ZM106.39,260c7.11,0,5.23-22.3,4.56-26.26-3.13-18.5-14.56,9.77-10.48,13.17-.43,2,2,3.12-.24,5C103.17,253,103,260,106.39,260Z"/><path class="cls-8" d="M82.95,210.05c2.17,1.08-1.88,10.1-1.88,12.06-.88,3-1.13,6.37-2,9.47-.56,3.61-1.08,7.89-2.61,11.25,0,.93-.81,4.71-.59,4-1.28,2.87-1.27,7.83-1.78,10.89v.47H74q-.31,2.19-.59,4.38a7.64,7.64,0,0,0-.24,2.72,2.83,2.83,0,0,1-.36,1.07c-.16,0-.24.12-.24.36q-.12.95-.24,1.78a5.87,5.87,0,0,1-.24,2.13c-.08.46,0,3.79-.59,3.79a.71.71,0,0,1-.12-1.07c.1-.53-.47-2.56-.47-1.89-.88,5.66-1.52,11.37-2.25,17a7.33,7.33,0,0,1-2.37,5.68c-2.68-.26-5.86-.15-8.29,1.07a2.42,2.42,0,0,1-2.49-.24c-.75-.15-2.07-.63-2.84-.24a.49.49,0,0,1-.36.12c-2.81-.6-7.63-.5-8.76-3.91l-.36-1.18q-.12-.36.71-.47A9.46,9.46,0,0,1,45,285.1a16,16,0,0,0,.12-1.89,3,3,0,0,0,.83-1.3v-.12c2.81-9.17,6.34-18.88,8.44-28.21,1.61-7.16-1.71-10.67-5.84-16.77-4.32-4.3-13.38-16.73-13.38-23.31-.06-2.15-1.84-10.9.27-11.59q1.17-.51,2.37-.95h.95c1.92,1.15,6.7.42,8.32,2,2.26,1.82,4.82,11.33,6.57,13.58a2.12,2.12,0,0,1,.24.59c1.25,4.61,5.14,10.23,7.7,14.21l.36.35a1.87,1.87,0,0,0,.71-1.18,3.72,3.72,0,0,0,.47-1.18c.16-.63.28-1.07.36-1.3,3-6,2-16.57,9.59-19.3a1.12,1.12,0,0,1,1.42.35,2.8,2.8,0,0,0,1.3,1.07c.08,0,.2-.08.36-.24.61-1.21,4.24-1.06,4.72-.58a1.34,1.34,0,0,0,.83.36A3.17,3.17,0,0,1,82.95,210.05Z"/><path class="cls-8" d="M135.54,245c0-.76,0-3.7.36-4.5a2.57,2.57,0,0,0,.12-2.6,35.87,35.87,0,0,1,.12-4.74,8.63,8.63,0,0,0,.12-2l.47-4.26a3.8,3.8,0,0,1,.24-3.2l.12-2.84a17.13,17.13,0,0,0,.12-2.84,7.49,7.49,0,0,1,.95-3.55.86.86,0,0,1,1.18-.71c.47,0,.75-.12.83-.35a1.06,1.06,0,0,1,1.07-.47,7.8,7.8,0,0,0,3.43.12,7.06,7.06,0,0,1,3.2-.12l.47-.35q1.47-2.83,3.55-.47c.52.56,1.12,1,1.66,1.54a1.52,1.52,0,0,1,1.66,1.06c1.42,4.27.64,10.37.59,14.8a1.66,1.66,0,0,0,.24-.83V228a2.11,2.11,0,0,0,.71-2.6,38.42,38.42,0,0,0,.12-4.26,6.48,6.48,0,0,0,.24-1.42c3.91,3.92,1.19,15.82.59,20.72-.49,1.46.29,3.67.12,5.21v.59c.51,1.54-.45,3.74.36,5.09a7.76,7.76,0,0,0-.24,1.89,4.16,4.16,0,0,0,.24,1.54.52.52,0,0,1,.12.71c-.78,2.07.21,5.81.36,7.93.08,0,.24-.12.47-.36q.83,1.54-.24,2.25a9.22,9.22,0,0,1-1.3.95v.35l.24.12a1.27,1.27,0,0,1,1.07.35,11.89,11.89,0,0,1,2,4.85c4.66,11.74,10.49-14.35,10.66-16.69.55-1.51,1-6.64.36-8.05-1-9.69-.64-14.55-2.4-24.22.36-1.87,1.45-3.09,1.89-4.85h2.37a3,3,0,0,1,1.18-.12c7-2.34,5.71,6.6,7.22,9.59,1.87,5.63,1.66,10.12.74,15.93,0,.35.49,2.67-.59,2.49q-.31.08-.24.36a6.07,6.07,0,0,0,.59.95l-.47,1.42a3.27,3.27,0,0,1,.36,1.78c0,.08-.08.2-.24.36q-.95.59-.36,2c1.75,1.77-.49,5.65,0,7.58v2.13l-.12.12q-.77.74.12,1.3c-.08,0,0,.12.24.35-.9.36-1.27,1.11-.47,1.89a.55.55,0,0,1,.12.47,6.67,6.67,0,0,0-.24,2.49q-.24,1.42-.47,2.37c-1.33,0-1.82,1.88-1.42,3.08a1.52,1.52,0,0,0-.24,1.78c.08.08,0,.32-.24.71-.84,1-1.2,2.5-2.13,3.43a7.77,7.77,0,0,1-2.61,4.14,34.19,34.19,0,0,0-4.38,3.32,2.4,2.4,0,0,1-1.3.47,1.32,1.32,0,0,0-1.54.83,22.15,22.15,0,0,1-5.92,2.13,2.17,2.17,0,0,0,.95-1.54c0-.24-.16-.43-.47-.59a.55.55,0,0,0-.47.12c-.9,1.8-2.8.32-3.91,1.42-2.09,1.49-3.88-.47-6-.47l-.71-.35a5.3,5.3,0,0,0-2.37-1.42,12.72,12.72,0,0,1-3.43-3.08,6.59,6.59,0,0,1-1.54-1.42c-1.58-2-3.91-5.42-3.91-8,.72-4.39-2.65-13.26-3-17.79S136.09,249.41,135.54,245Z"/><path class="cls-8" d="M238.68,282.73a1.3,1.3,0,0,1-.24.47,2.83,2.83,0,0,1-.24,2.25.67.67,0,0,0,.24.47.85.85,0,0,1,.12.71l-.83,1.3a4,4,0,0,0-.71,1.89,1.38,1.38,0,0,0-1.42.95c-.22.5-1.61,1.37-2,1.78l-.71.36c0-.56-1,.3-1.3-.24q-.27-.5-.71,0c-.16.31-.12.55.12.71a11.53,11.53,0,0,0,1.42,1.3v-.12a6.15,6.15,0,0,0,.36.83,3.29,3.29,0,0,1-1.54-.36c-.16-.32-.36-.47-.59-.47a1.89,1.89,0,0,0-.83-.24.73.73,0,0,0-.24.95v.12c-.08,0-.12.08-.12.24-2.52-1.58-4.65-1.7-6-4.5-4.11,0-3-4.46-5.33-6.39-3.09-3.43-3.22-9.36-6-13q-.46-1-.83-2c-.94-3.76-4.34-7.32-5.92-10.89-.46-.69-.35-1.76-.95-2.37a12.89,12.89,0,0,1-1.07-1.54A1.34,1.34,0,0,0,203,256c1.06,5.32-1,11-.36,16.34.48,1.92-.38,3.89,0,5.8a14.72,14.72,0,0,0-.36,3.79,1,1,0,0,1-.24,1.42v.12a.34.34,0,0,0-.12.24c.53,1.06-.71,2.48-.71,3.55a1.88,1.88,0,0,1-.95,1.78c-.54,1.08-.7,2.11-1.54,3a15.27,15.27,0,0,0-1.66.95q-.45,1.32-1.54.83h-.83q-.12-.36-.83-.35l-2.37.83c-3.37,0-1.9-.25-2.84-1.18-3.66-6.4.15-18.61.24-25.89q.11-8.68.12-17.32a2.42,2.42,0,0,1,0-1.07c1.42-4-.48-8,.59-12v-.59c-1.49-7.41-.15-11,3.91-16.69a2.23,2.23,0,0,0,.47-.83c.88-.58,1.86-.57,2.25.59a3,3,0,0,1,1.66-1.54q.65-.14,1.3-.24a4.56,4.56,0,0,1,3.2,1.07c1.45,2,4.89,3.72,4.62,6.75l1.54,2.6a.67.67,0,0,0,.47.24c.62,3.1,2.55,5.86,4.14,8.52l.36.12-1.07-2.49-1.66-3.08q-.24-.95-.36-1.54c.75-.18,1.76,1.6,1.66,2.13a1.07,1.07,0,0,0,.59.95,3.45,3.45,0,0,1,1.42,2.13,1.49,1.49,0,0,0,.71,1.54,3.43,3.43,0,0,1,1.54,2.13c0,.63,2.38,3.55,2.61,3.91.39-.79.12-1.52.12-2.37a4.77,4.77,0,0,1,.83-2.37c4.45-3.82-3.79-28.48,3.55-29.4,2.06,0,3.91-4.15,6.22-4.15a2.75,2.75,0,0,0,2.72,1.66,3.78,3.78,0,0,1,2.49,3.79c0,1.84.34,3.75.47,5.56a78.66,78.66,0,0,0-.54,14.37c.08,1.24.54,4.11-.12,5.21a19.67,19.67,0,0,0,.24,3.08,12.94,12.94,0,0,1,0,2.49q-.47.47,0,1.18a.89.89,0,0,1-.47,1.3l-.24.24.36.71a1.49,1.49,0,0,1-.24,1.18,3,3,0,0,0,.71,1.18,2.05,2.05,0,0,1-.12.83.74.74,0,0,0,0,1.18c.37.62-.55,1.94,0,2.49a1.18,1.18,0,0,1-.47,1.66,3.38,3.38,0,0,1,.47.83,2.28,2.28,0,0,0,0,2.25c-.23-3.75-.16,6-.47,5.68.31.4.24.71-.24.95s-.51.43-.12.83c.15.19.93,2.33.59,2.84a19.58,19.58,0,0,1,.59,3.2,1.34,1.34,0,0,0,.24,1.54c-.17,1.68,2.32,3.15,1.3,5.21a2.73,2.73,0,0,1,.95.95,5.58,5.58,0,0,1,.95,1.42q0,.71-.59.71l-1.3-.35a.68.68,0,0,0-.47.24c0,.32.08.47.24.47a3.05,3.05,0,0,0,.95.12q.71.24.24.83l-.24.47a20.26,20.26,0,0,0,1.07,1.89.76.76,0,0,0-.59,0,.34.34,0,0,1-.24.12l.24.24A.77.77,0,0,0,238.68,282.73Z"/></g></g></svg>