<?xml version="1.0" encoding="utf-8"?>
<!-- Generator: Adobe Illustrator 21.0.0, SVG Export Plug-In . SVG Version: 6.00 Build 0)  -->
<svg version="1.1" id="Layer_1" xmlns="http://www.w3.org/2000/svg" xmlns:xlink="http://www.w3.org/1999/xlink" x="0px" y="0px"
	 viewBox="0 0 43 38.4" style="enable-background:new 0 0 43 38.4;" xml:space="preserve">
<style type="text/css">
	.st0{fill:#E0E4D6;}
	.st1{fill:#BACCA2;}
	.st2{fill:#998A5C;}
	.st3{fill:#62853B;}
	.st4{fill:#4D5B2F;}
	.st5{fill:#808080;}
	.st6{fill:#81B609;stroke:#000000;stroke-miterlimit:10;}
	.st7{fill:#606060;}
	.st8{fill:#231F20;}
</style>
<title>Asset 1</title>
<g id="Layer_2">
	<g id="Layer_1-2">
		<ellipse class="st0" cx="19.3" cy="19.1" rx="19.1" ry="19.1"/>
		<path class="st1" d="M0.2,19.7c0.2,10.6,9,18.9,19.6,18.7c10.2-0.2,18.5-8.5,18.7-18.7c-6.3-1.4-12.7-2.2-19.1-2.1
			C12.9,17.5,6.5,18.2,0.2,19.7z"/>
		<path class="st2" d="M17.1,11.8c0.8,0.6,1.8,1.5,1.8,2.4c0,0.2,0,0.4,0,0.6s0,0.3,0,0.5c0,1.3-0.1,2.6-0.1,3.9
			c0,0.7,0,1.4,0.1,2.1c0,0.4,0,0.7,0,1.1s0,0.7,0.1,1c0.2,1.3,0.1,2.6-0.2,3.8c0,0.2,0,0.4,0.2,0.4s0.5-0.2,0.6-0.4l0.1-0.1v-0.4
			c0.1-1,0.1-2.1,0-3.1c-0.1-0.6-0.2-1.3-0.3-1.9c-0.1-0.4-0.1-0.8-0.2-1.1c-0.2-1.4-0.2-2.7-0.1-4.1c0.1-1.9,0.7-3.7,1.8-5.3
			c-0.5,0.1-0.8,0.6-1.1,1.1c-0.1,0.3-0.3,0.5-0.5,0.7l0,0c-0.1-0.3-0.1-0.5,0.1-0.8c0-0.1,0.1-0.2,0.1-0.3c0.1-0.4,0.1-0.8,0.1-1.2
			v-0.1c0-0.6,0-0.9-0.1-1h-0.1c0,0-0.1,0-0.1,0c-0.1,0.1-0.1,0.6-0.1,0.8c0.1,0.7,0.1,1.5-0.2,2.2l0,0C18.4,12.3,17.7,12,17.1,11.8
			z"/>
		<path class="st3" d="M21.5,10.9c0.2,0,0.5,0.1,0.7,0.1l0.5,0.1h0.3c0.8,0.1,1.7,0.1,2.5,0c1.9-0.1,3.8-0.6,5.5-1.3
			C32,9.4,32.9,9,33.7,8.6c2.6-1.3,5.3-2.3,8.2-2.7H42c0.2,0,0.5-0.1,0.7-0.3c-0.1-0.3-0.7-0.6-1.1-0.7l-0.2-0.1
			c-0.5-0.2-1-0.4-1.4-0.6c-0.8-0.2-1.6-0.4-2.5-0.5h-0.6c-2.2-0.1-4.5,0.1-6.7,0.5c-0.7,0.1-1.5,0.3-2.2,0.5
			c-0.4,0.1-0.8,0.2-1.2,0.3l0,0c-1,0.2-2,0.6-2.9,1c-1.7,0.8-3,2.4-3.5,4.2c0.2-0.3,0.4-0.5,0.7-0.6l0,0c1.5-0.8,3.1-1.5,4.7-2
			c1.7-0.5,3.4-0.9,5.1-1.1l0,0l0,0C30.5,6.8,30.1,7,29.8,7l-0.4,0.1l-0.5,0.1L28,7.4c-1,0.2-1.9,0.5-2.9,0.8
			c-0.9,0.3-1.8,0.7-2.7,1.2l-0.3,0.1c-0.7,0.3-1.4,0.8-1.8,1.4C20.7,10.9,21.1,10.8,21.5,10.9z"/>
		<path class="st3" d="M17.5,3.1c0-0.2,0-0.4,0-0.6c0-0.5,0.2-1.2,0.2-1.3c-0.2,0.1-0.3,0.6-0.4,0.9c0,0.1-0.1,0.2-0.1,0.3L17,2.7
			c-0.1,0.3-0.2,0.5-0.3,0.8c-0.1,0.6-0.1,1.2,0,1.8c0.4,1.4,1,2.7,1.9,3.8l0.3,0.5c0.2-1.5-0.2-3-0.9-4.3
			C17.7,4.6,17.5,3.9,17.5,3.1z"/>
		<path class="st3" d="M1.1,4.6l0.1,0.2c0.4,0.6,0.8,1.2,1.3,1.7c1,1,2.2,1.8,3.5,2.4c1.4,0.6,2.9,1,4.4,1.2l0.7,0.1
			c1.2,0.1,2.5,0.3,3.7,0.6c1.1,0.2,2.1,0.5,3.1,1c-1-1.1-2.2-2-3.4-2.7c-0.6-0.4-1.3-0.7-2-1.1l-0.5-0.2C11.4,7.6,11,7.4,10.6,7
			l0,0l0,0c1.4,0.5,2.7,1.1,3.9,1.8c1.2,0.8,2.4,1.6,3.4,2.6c-0.2-0.7-0.5-1.3-1-1.8l-0.2-0.3c-0.5-0.6-1-1.2-1.6-1.7
			c-1.3-1.1-2.7-2-4.3-2.6C9.2,4.6,7.4,4.2,5.6,4H5.3C4.5,3.9,3.6,3.7,2.8,3.4L2.1,3.2c-0.5-0.2-1-0.3-1.5-0.4H0.3
			C0.2,3.3,0.8,4.1,1.1,4.6z"/>
		<path class="st4" d="M19.3,4.1c-0.2-0.5-0.4-1-0.7-1.4c-0.1-0.2-0.2-0.4-0.3-0.6c-0.1-0.2-0.2-0.5-0.4-0.7c-0.7,1.1,0.1,3.2,0.5,4
			c0.3,0.6,0.5,1.3,0.7,2c0.1,0.3,0.1,0.7,0.1,1c0,0.3,0,0.7,0.1,1c0.3-0.5,0.4-1.1,0.5-1.6V7.7C19.8,6.5,19.7,5.3,19.3,4.1z"/>
		<path class="st5" d="M18.6,16.1h-0.8c-3.5,0.2-6.8,1.3-9.6,3.3c-1.7,1.3-3,3.1-3.6,5.2c-0.6,1.4-0.5,3,0.3,4.4
			c1.3,1.8,4,1.9,6,1.8c1.8-0.1,3.6-0.7,5.4-0.7c1.2,0,2.4,0.3,3.5,0.8c0.8,0.4,1.5,0.7,2.4,1c0.3,0.1,0.8,0.3,1,0s-0.3-1.2-0.5-1.5
			c-0.4-0.6-1-1.1-1.6-1.4c-2.8-1.6-5.7-1-8.8-0.9c-1.3,0.1-2.5-0.1-3.8-0.5c-0.5-0.2-1.4-0.6-1.4-1.2c0.3,0.3,0.6,0.6,1,0.8
			c0.8,0.4,1.8,0.5,2.7,0.6c1.3,0.1,2.6,0.1,3.9-0.1c1.2-0.2,2.3-0.2,3.5-0.1c0.4-1.8,0.1-3.7-0.8-5.3c-0.7-1-1.5-1.8-2.6-2.4
			c-1-0.4-2.1-0.6-3.2-0.4c0.5-0.5,2.2-0.3,2.8-0.1c0.6,0.3,1.2,0.7,1.6,1.1c1.1,0.9,2,2.1,2.4,3.4c0.1,0.2,0.1,0.4,0.2,0.6
			c0-0.2,0-0.3,0-0.5c0-0.5,0-1.1-0.1-1.6c0-0.3,0-0.6,0-1c0-1.5-0.1-2.6,0-3.6v-0.5C18.6,16.9,18.6,16.5,18.6,16.1z"/>
		<path class="st5" d="M24,31.3c-0.1-0.9,0-2.2-0.5-2.9s-1.3-0.7-2-0.9l0.6-0.1c0.3-0.1,0.7,0,0.9,0.1c-0.2-0.9,0-1.9,0.6-2.6
			c0.2-0.2,0.3-0.4,0.5-0.6c0.1-0.4,0.1-0.9,0.2-1.3c0.1-0.4,0.8-2.8,1.2-2.7c0.1,0,0.7,1.2,0.9,1.4c0.3,0.4,0.7,0.7,1.1,1
			c-0.9,0.2-1.7-1.4-1.9-2c-0.2,0.8-0.4,1.6-0.3,2.4c0,0.2,0.4,2.1,0.6,2.1c-0.3,0.1-0.8-1.1-0.8-1.3C25,23.2,25,22.6,25,22
			c-0.1,0.5-0.3,1-0.4,1.6c0,0.3-0.1,0.7-0.1,1c0,0.1-0.3,0.2-0.4,0.3c-0.3,0.3-0.5,0.7-0.6,1.1c-0.5,1.3,0.5,2.3,0.6,3.5
			c0,0.7,0.1,1.5,0.4,2.1c0.2,0.3,0.9,0.8,1.3,0.4c0.1-0.1-0.3-0.6-0.1-0.8s0.8,0.3,0.9,0.4c0.3,0.5-0.7,0.3-1,0.7
			c1.4,0.5,2-0.3,3.2-0.6c0.8-0.1,1.7-0.4,2.4-0.9c0.4-0.2,0.7-0.5,1-0.8c0.2-0.3,0.4-0.7,0.5-1.1c0.5-0.8,1.8-1,2.5-1.7
			c-0.9,0.2-1.7,0.4-2.6,0.8c-0.3,0.1-0.6,0.3-0.8,0.5c0.1-0.2,0.2-0.4,0.4-0.5c0.3-0.2,0.6-0.4,0.9-0.5c0.8-0.2,1.5-0.4,2.3-0.5
			c-0.8-0.4-1.7-0.6-2.7-0.7c0.7-1.4-0.7-3.1-1.6-4.1c-1.1-0.9-2.2-1.7-3.5-2.4c-1.5-0.9-2.8-2.5-4.5-3.1c-1.2-0.4-2.6-0.6-3.9-0.6
			c-0.1,1.8,0,3.7,0.3,5.5c0.1,0.9,0.2,1.7,0.3,2.4c0.1,0.6,0.1,1.2,0,1.8c0,0.1,0,0.3,0,0.4c0,0.1,0,0.1,0,0.2
			c0.4-0.8,0.8-1.6,1.4-2.4c0.2,0.2-0.5,1.2-0.5,1.4c-0.2,0.4-0.4,0.7-0.5,1.1s-0.4,0.6-0.5,0.9l0,0l0,0c0,0.1-0.1,0.2,0,0.3
			c0,0.4,0.4,0.4,0.8,0.5c0.5,0.2,1.1,0.5,1.5,0.8c0.5,0.3,0.8,0.8,1.1,1.3C23.4,30.8,23.4,31.2,24,31.3z"/>
		<path class="st6" d="M26.8,7.6"/>
		<path class="st4" d="M30.2,6.7c-1.5,0.2-3,0.6-4.4,1c-1.6,0.5-3.2,1.2-4.7,2l0,0c-0.3,0.1-0.5,0.3-0.7,0.6C20.6,9.5,21,8.7,21.6,8
			C21,8.7,27.2,6.7,30.2,6.7z"/>
		<path class="st4" d="M15.9,8.3c0.3,0.3,0.6,0.7,0.9,1.1L17,9.7c0.5,0.5,0.8,1.1,1,1.8c-0.6-0.6-1.2-1.1-1.9-1.6
			c0.1,0,0.3,0.1,0.3,0c0-0.2,0-0.4-0.1-0.6L15.9,8.3z"/>
		<path class="st4" d="M37.3,7.1c-1.2,0.5-2.4,1-3.5,1.5C32.9,9,32,9.4,31.1,9.8c-1.8,0.7-3.6,1.1-5.5,1.3c-0.8,0.1-1.7,0.1-2.5,0
			h-0.3L22.2,11c-0.2,0-0.5-0.1-0.7-0.1c-0.4-0.1-0.8,0-1.2,0.1c0.4-0.7,1-1.2,1.8-1.4l0.3-0.1l0.8-0.4c0,0.1,0,0.3,0,0.4
			c0.1,0.3,0.5,0.4,0.8,0.5c2,0.4,4.1-0.4,6.1-1C32.4,8.2,34.8,7.6,37.3,7.1z"/>
		<path class="st4" d="M17.8,11.7c-0.4-0.5-0.9-1-1.5-1.5c-1.4-0.7-5-0.8-6.4-1.1C6.4,8.4,4.7,8,2.2,6l0.4,0.5c1,1,2.2,1.8,3.5,2.4
			c1.4,0.6,2.9,1,4.4,1.2l0.7,0.1c1.2,0.1,2.5,0.3,3.7,0.6l1.7,0.5C16.9,11.3,17.4,11.5,17.8,11.7z"/>
		<path class="st7" d="M18.6,20.8c0,0.2,0,0.4,0,0.6c0,0.3,0,0.6,0,1c0,0.5,0,1.1,0.1,1.6c0,0.2,0,0.4,0,0.5c0-0.2-0.1-0.4-0.2-0.6
			c-0.3-0.9-0.7-1.6-1.3-2.3l0.5,0.4c0.1,0.1,0.3,0.2,0.4,0.1c0.1-0.1,0.2-0.2,0.2-0.4L18.6,20.8z"/>
		<path class="st7" d="M7.3,26.4c0.3,0.2,0.7,0.5,1,0.7c0.8,0.4,1.8,0.5,2.7,0.6c1.2,0.1,2.3,0.1,3.5,0C12,27.7,9.6,27.3,7.3,26.4z"
			/>
		<path class="st7" d="M23,26.4c0,0.4,0,0.9,0.2,1.3c-0.2-0.2-0.4-0.2-0.7-0.2C22.9,27.2,22.8,26.8,23,26.4z"/>
		<path class="st7" d="M19.9,23.9L19.9,23.9c0.1,0.7,0.1,1.3,0,1.9c0,0.1,0,0.3,0,0.4c0,0.1,0,0.1,0,0.2c0.3-0.5,0.6-1.1,0.8-1.6
			l-0.1,0.1c0,0-0.1,0.1-0.2,0.1c-0.1,0-0.1-0.1-0.1-0.1C20.1,24.5,20,24.2,19.9,23.9z"/>
		<path class="st7" d="M23,26.4c0.1-0.6,0.3-1.1,0.7-1.5c0.2-0.2,0.3-0.4,0.5-0.6c0.1-0.4,0.1-0.8,0.2-1.2c-0.6,0.4-1.2,0.7-1.9,0.9
			c-0.5,0.2-1,0.5-1.4,0.8c-0.1,0.3-0.3,0.5-0.3,0.6c-0.2,0.3-0.3,0.7-0.5,1l0.4-0.1c0.2,0,0.3,0,0.5,0C21.7,26.3,22.4,26.4,23,26.4
			L23,26.4z"/>
		<path class="st7" d="M7.6,23.8c1.1,0.2,2.1,0.4,3.2,0.5h0.1h0.7c0.9,0,1.8,0.1,2.6,0.3c1,0.1,1.9,0.5,2.8,1c0.9,0.6,1.3,1,1.4,1.3
			c0-0.2,0.2-0.5,0.2-0.7c-0.3-1-0.9-1.9-1.6-2.7c-0.7-0.8-1.5-1.4-2.4-1.9c-1.9-1.1-3.9-1.9-6.1-2.2H8.2l0,0c-1.3,1-2.3,2.3-3,3.8
			C6,23.4,6.8,23.6,7.6,23.8z"/>
		<path class="st8" d="M42.9,5.3c-0.5-0.4-1-0.7-1.6-0.8L41,4.4c-0.6-0.2-1.2-0.4-1.9-0.6c-0.5-0.1-1-0.2-1.5-0.2
			c-0.8-0.1-1.7-0.1-2.5-0.1c-1.4,0-2.7,0.2-4.1,0.4c-1,0.2-2.1,0.4-3.1,0.7l-1,0.3c-1.1,0.3-2.1,0.6-3.1,1.1
			c-1.9,0.9-3.3,2.5-3.8,4.5c0,0.1-0.1,0.3-0.1,0.4c-0.1,0.4-0.2,0.8-0.4,1.2c0-0.3,0-0.6,0.1-0.9c0-0.2,0.1-0.5,0.1-0.7
			c0-0.2,0-0.4,0-0.6c0-0.3,0-0.7,0-1c0.2-1.1,0.3-2.3,0.1-3.4c-0.1-0.9-0.4-1.7-0.8-2.5l-0.2-0.3c-0.3-0.7-0.7-1.4-1.3-2l0,0
			c-0.2,0-0.5,0.6-0.6,0.9c0,0.1-0.1,0.3-0.2,0.4c-0.2,0.5-0.4,1-0.5,1.5c-0.2,1-0.1,2,0.4,2.9C17.1,7.3,17.5,8,18,8.8l0.4,0.6
			l0.1,0.2c0.2,0.3,0.4,0.6,0.5,1c0.1,0.5,0.1,1.1-0.2,1.6c-0.3-0.1-0.4-0.5-0.5-0.8c0-0.1-0.1-0.2-0.1-0.3c-0.2-0.5-0.5-1-0.9-1.5
			c-0.7-0.9-1.5-1.8-2.4-2.4C13.1,5.7,11,4.7,8.7,4.3C7.8,4.1,6.9,3.9,6,3.8C4.7,3.6,3.4,3.3,2.1,3L1.6,2.8C1.3,2.7,0.9,2.6,0.5,2.6
			H0.4c-0.2,0-0.3,0-0.4,0.1S0,3,0.2,3.3c0.5,1.1,1.1,2,1.8,2.9c1.4,1.7,3.4,2.8,5.5,3.4c1.1,0.3,2.2,0.6,3.3,0.7h0.1l0.7,0.1
			c0.9,0.1,1.8,0.2,2.7,0.4c1,0.2,2,0.6,2.8,1.3c0.8,0.6,1.6,1.3,1.6,2.4c0,0.4,0,0.9,0,1.3c-1.5,0-3.1,0.2-4.5,0.6
			c-2.5,0.6-4.8,1.7-6.8,3.1c-2,1.7-3.2,4.1-3.5,6.6c-0.2,3.1,2.5,4.9,5.3,4.9c1.1,0,2.2,0,3.3-0.1c1.3-0.3,2.7-0.5,4.1-0.5
			c1.2,0.1,2.4,0.3,3.5,0.8c0.7,0.4,1.5,0.7,2.3,0.9c0.3,0.1,0.7,0.1,1,0.1c0.5-0.2,0.3-0.3,0.4-0.7c0.3,0.1,0.6,0.2,0.8,0.4
			c0.3,0.3,0.7,0.5,1.1,0.6c0.7,0.3,1.6,0.2,2.2-0.2c0.6-0.3,1.1-0.5,1.8-0.6c0.7-0.2,1.4-0.5,2-1c0.3-0.2,0.6-0.4,0.8-0.7
			c0.4-0.4,0.5-1,0.9-1.4s1.1-0.6,1.6-0.9c0.3-0.2,1.7-1,1.1-1.2l-2-0.7c-0.3-0.1-0.4,0-0.5-0.3c-0.1-0.3-0.1-0.5-0.1-0.8
			c-0.2-0.9-0.7-1.8-1.4-2.5c-1.1-1-2.3-1.9-3.6-2.6c-1.3-0.8-2.4-1.9-3.6-2.7c-1-0.6-2.2-0.9-3.4-1c-0.6-0.1-1.2-0.1-1.8-0.2
			c0-0.3,0-0.5,0.1-0.8c0-0.1,0-0.2,0.1-0.3s0-0.2,0.1-0.3c0.2-0.7,0.4-1.3,0.8-1.9l0.2-0.3c0.1-0.1,0.1-0.3,0.2-0.4
			c0.2-0.4,0.3-0.8,0.8-0.8h0.3c0.3,0,0.5,0.1,0.8,0.1s0.5,0.1,0.8,0.1h0.4c1.6,0,3.3-0.2,4.9-0.6c1.6-0.4,3.1-1,4.6-1.7
			c1.7-0.8,3.4-1.5,5.1-2.1c0.9-0.3,1.8-0.5,2.8-0.6l0,0c1-0.1,1.6-0.3,1.7-0.6C43,5.6,43,5.4,42.9,5.3z M18.9,9.6l-0.3-0.5
			C17.7,8,17,6.6,16.6,5.3c-0.1-0.6-0.1-1.2,0-1.8c0.1-0.3,0.2-0.5,0.4-0.8l0.1-0.3c0,0,0-0.2,0.1-0.3c0.1-0.3,0.3-0.8,0.4-0.9
			c0,0.1-0.1,0.8-0.2,1.3c0,0.2,0,0.4,0,0.6c0.1,0.8,0.2,1.5,0.5,2.2C18.7,6.6,19,8.1,18.9,9.6L18.9,9.6z M19.2,8.3
			c0-0.3,0-0.7-0.1-1c-0.1-0.7-0.4-1.4-0.7-2c-0.4-0.8-1.2-2.8-0.5-4C18,1.6,18.2,1.8,18.3,2c0.1,0.2,0.2,0.4,0.3,0.6
			c0.3,0.4,0.5,0.9,0.7,1.4c0.4,1.1,0.6,2.3,0.5,3.4v0.1c0,0.6-0.2,1.1-0.5,1.6C19.2,8.9,19.2,8.6,19.2,8.3z M11.1,10.1L10.4,10
			C8.9,9.8,7.4,9.4,6,8.8C4.7,8.3,3.5,7.5,2.5,6.5C2.1,5.9,1.7,5.4,1.3,4.8L1.1,4.6C0.8,4.1,0.2,3.3,0.3,2.8h0.4
			c0.5,0.1,1,0.2,1.5,0.4l0.7,0.2C3.6,3.7,4.5,3.9,5.3,4h0.3c1.8,0.2,3.6,0.6,5.3,1.1c1.6,0.6,3,1.5,4.3,2.6c0.6,0.5,1.1,1,1.6,1.7
			L17,9.7c0.5,0.5,0.8,1.1,1,1.8c-1-1-2.2-1.9-3.4-2.6C13.3,8.1,12,7.5,10.6,7l0,0l0,0c0.4,0.3,0.8,0.6,1.2,0.7l0.5,0.2
			c0.7,0.3,1.4,0.7,2,1.1c1.3,0.7,2.4,1.6,3.4,2.7c-1-0.5-2-0.8-3.1-1C13.5,10.4,12.3,10.2,11.1,10.1z M23.2,31.8
			c-0.2,0.3-0.7,0.1-1,0c-0.8-0.3-1.6-0.6-2.4-1c-1.1-0.5-2.3-0.8-3.6-0.8c-1.8,0-3.6,0.6-5.4,0.7c-2,0.1-4.7,0-6-1.8
			c-0.8-1.3-0.9-2.9-0.3-4.4c0.6-2.1,1.9-3.9,3.6-5.2c2.8-2,6.2-3.1,9.6-3.3h0.8c0,0.4,0,0.8,0,1.2v0.5c0,1.1,0,2.2,0,3.6
			c0,0.3,0,0.6,0,1c0,0.5,0,1.1,0.1,1.6c0,0.2,0,0.4,0,0.5c0-0.2-0.1-0.4-0.2-0.6c-0.4-1.4-1.3-2.6-2.4-3.4c-0.5-0.5-1-0.9-1.6-1.1
			c-0.6-0.2-2.3-0.4-2.8,0.1c1.1-0.2,2.2,0,3.2,0.4c1,0.6,1.9,1.4,2.6,2.4c1,1.6,1.3,3.5,0.8,5.3c-1.2-0.1-2.3-0.1-3.5,0.1
			c-1.3,0.1-2.6,0.2-3.9,0.1c-0.9,0-1.8-0.2-2.7-0.6c-0.4-0.2-0.7-0.5-1-0.8c0.1,0.6,0.9,1,1.4,1.2c1.2,0.4,2.5,0.6,3.8,0.5
			c3-0.1,6-0.7,8.8,0.9c0.6,0.3,1.2,0.8,1.6,1.4C23,30.6,23.5,31.4,23.2,31.8z M23.1,16.7c1.7,0.6,3,2.1,4.5,3.1
			c1.2,0.7,2.4,1.5,3.5,2.4c1,0.9,2.4,2.7,1.6,4.1c0.9,0.1,1.8,0.3,2.7,0.7c-0.8,0.1-1.5,0.3-2.3,0.5c-0.3,0.1-0.6,0.3-0.9,0.5
			c-0.2,0.2-0.3,0.3-0.4,0.5c0.2-0.2,0.5-0.4,0.8-0.5c0.8-0.4,1.7-0.6,2.6-0.8c-0.7,0.8-2,0.9-2.5,1.7c-0.2,0.4-0.3,0.7-0.5,1.1
			c-0.3,0.3-0.6,0.6-1,0.8c-0.7,0.5-1.5,0.8-2.4,0.9c-1.2,0.3-1.9,1.1-3.2,0.6c0.3-0.4,1.3-0.2,1-0.7c-0.1-0.1-0.7-0.5-0.9-0.4
			s0.2,0.6,0.1,0.8c-0.3,0.4-1.1-0.1-1.3-0.4c-0.3-0.7-0.4-1.4-0.4-2.1c-0.2-1.3-1.1-2.2-0.6-3.5c0.1-0.4,0.4-0.8,0.6-1.1
			c0.1-0.1,0.4-0.2,0.4-0.3c0.1-0.3,0.1-0.7,0.1-1c0.1-0.5,0.3-1,0.4-1.6c0,0.6,0,1.2,0.1,1.9c0,0.2,0.5,1.4,0.8,1.3
			c-0.2,0.1-0.6-1.9-0.6-2.1c0-0.8,0.1-1.6,0.3-2.4c0.2,0.6,1.1,2.2,1.9,2c-0.4-0.3-0.8-0.6-1.1-1c-0.1-0.1-0.7-1.4-0.9-1.4
			c-0.5,0-1.1,2.3-1.2,2.7c0,0.4-0.1,0.9-0.2,1.3c-0.1,0.2-0.3,0.4-0.5,0.6c-0.6,0.7-0.9,1.7-0.6,2.6c-0.3-0.2-0.6-0.2-0.9-0.1
			l-0.6,0.1c0.8,0.2,1.5,0.1,2,0.9s0.3,2,0.5,2.9c-0.6-0.1-0.6-0.5-0.9-0.9c-0.3-0.5-0.6-0.9-1.1-1.3c-0.5-0.3-1-0.6-1.5-0.8
			c-0.4-0.2-0.8-0.1-0.8-0.5c0-0.1,0-0.2,0-0.3l0,0l0,0c0.1-0.3,0.4-0.7,0.5-0.9s0.4-0.7,0.5-1.1c0.1-0.2,0.7-1.3,0.5-1.4
			c-0.5,0.7-1,1.5-1.3,2.3c0-0.1,0-0.1,0-0.2c0-0.1,0-0.3,0-0.4c0.1-0.6,0.1-1.2,0-1.8c-0.1-0.7-0.2-1.5-0.3-2.4
			c-0.3-1.8-0.5-3.6-0.3-5.5C20.6,16.1,21.9,16.3,23.1,16.7z M19,16.4c-0.1,1.4-0.1,2.8,0.1,4.2c0.1,0.4,0.1,0.8,0.2,1.1
			c0.1,0.6,0.2,1.2,0.3,1.9c0.1,1,0.1,2.1,0,3.1v0.4l-0.1,0.1c-0.1,0.2-0.3,0.4-0.6,0.4s-0.2-0.2-0.2-0.4c0.3-1.2,0.4-2.6,0.3-3.8
			c0-0.4,0-0.7-0.1-1s0-0.8,0-1.1c0-0.7-0.1-1.4-0.1-2.1c0-1.3,0-2.7,0.1-3.9c0-0.2,0-0.3,0-0.5s0-0.4,0-0.6c0-0.9-1-1.8-1.8-2.4
			c0.6,0.2,1.2,0.6,1.8,0.9l0,0c0.2-0.7,0.3-1.5,0.2-2.2c0-0.2,0-0.7,0.1-0.8c0,0,0.1,0,0.1,0h0.1c0.1,0,0.1,0.4,0.1,1v0.1
			c0,0.4-0.1,0.8-0.1,1.2c0,0.1-0.1,0.2-0.1,0.3c-0.1,0.2-0.2,0.5-0.1,0.8l0,0c0.2-0.2,0.4-0.5,0.5-0.7c0.3-0.5,0.6-1,1.1-1.1
			C19.8,12.8,19.1,14.6,19,16.4z M42,5.9h-0.1c-2.9,0.5-5.6,1.4-8.2,2.7C32.8,9,31.9,9.4,31,9.8c-1.8,0.7-3.6,1.1-5.5,1.3
			c-0.8,0.1-1.7,0.1-2.5,0h-0.3L22.2,11c-0.2,0-0.5-0.1-0.7-0.1c-0.4-0.1-0.8,0-1.2,0.1c0.4-0.7,1-1.2,1.8-1.4l0.3-0.1
			C23.2,9,24.1,8.6,25,8.3c1-0.3,2-0.6,3-0.9l0.9-0.2l0.5-0.1L29.8,7c0.4,0,0.8-0.2,1.1-0.4l0,0l0,0c-1.7,0.2-3.4,0.6-5.1,1.1
			c-1.6,0.5-3.2,1.2-4.7,2l0,0c-0.3,0.1-0.5,0.3-0.7,0.6c0.5-1.8,1.8-3.4,3.5-4.2c0.9-0.4,1.9-0.8,2.9-1l0,0C27.2,5,27.6,4.9,28,4.8
			c0.7-0.2,1.4-0.4,2.1-0.6c2.2-0.4,4.5-0.6,6.7-0.5h0.6C38.3,3.8,39.2,4,40,4.3c0.5,0.2,1,0.3,1.5,0.6l0.2,0.1
			c0.4,0.2,1,0.4,1.1,0.7C42.6,5.8,42.3,5.9,42,5.9L42,5.9z"/>
		<path class="st7" d="M30.1,21.3L30.1,21.3c-1.2-0.1-2.5,0-3.6,0.4c0.3,0.4,0.6,0.7,1,1c-0.9,0.2-1.7-1.4-1.9-2
			c-0.2,0.8-0.4,1.6-0.3,2.4c0,0.2,0.4,2.1,0.6,2.1c-0.3,0.1-0.8-1.1-0.8-1.3C25,23.2,25,22.6,25,22c-0.1,0.5-0.3,1-0.4,1.6
			c0,0.3-0.1,0.7-0.1,1c0,0.1-0.3,0.2-0.4,0.3c-0.3,0.3-0.5,0.7-0.6,1.1c-0.1,0.2-0.1,0.4-0.1,0.6c1.6,0.4,3,1.8,4.5,2.5
			c1.2,0.7,2.5,1.1,3.9,1.3c0.2-0.1,0.3-0.3,0.5-0.4c0.2-0.3,0.4-0.7,0.5-1.1c0.5-0.8,1.8-1,2.5-1.7c-0.9,0.2-1.7,0.4-2.6,0.8
			c-0.3,0.1-0.6,0.3-0.8,0.5c0.1-0.2,0.2-0.4,0.4-0.5c0.3-0.2,0.6-0.4,0.9-0.5c0.8-0.2,1.5-0.4,2.3-0.5c-0.8-0.4-1.7-0.6-2.7-0.7
			c0.7-1.4-0.7-3.1-1.6-4.1C30.7,21.8,30.4,21.6,30.1,21.3"/>
		<path class="st8" d="M26.9,27.5c-0.3-0.3-0.7-0.6-1.2-0.8c0.2,0.3,0.4,0.6,0.7,0.9c0.4,0.4,0.2,0.6,0.2,1.1
			C26.7,28.4,27,27.7,26.9,27.5z"/>
		<path class="st8" d="M28.4,29.9c0.6-0.5,1.2-0.2,1.8,0.1c-0.2-0.1-0.8-0.7-1-0.7S28.6,29.7,28.4,29.9z"/>
	</g>
</g>
</svg>
