<svg xmlns="http://www.w3.org/2000/svg" viewBox="0 0 43 38.29"><defs><style>.cls-1{fill:#e0e4d6;}.cls-2{fill:#bacca2;}.cls-3{fill:#998a5c;}.cls-4{fill:#62853b;}.cls-5{fill:#4d5b2f;}.cls-6{fill:gray;}.cls-7{fill:#81b609;stroke:#000;stroke-miterlimit:10;}.cls-8{fill:#606060;}.cls-9{fill:#231f20;}</style></defs><title>Asset 1</title><g id="Layer_2" data-name="Layer 2"><g id="Layer_1-2" data-name="Layer 1"><ellipse class="cls-1" cx="19.34" cy="19.15" rx="19.15" ry="19.15"/><path class="cls-2" d="M.2,19.67a19.15,19.15,0,0,0,38.29,0,84.14,84.14,0,0,0-19.14-2.14A84.14,84.14,0,0,0,.2,19.67Z"/><path class="cls-3" d="M17.09,11.75c.8.59,1.82,1.46,1.82,2.39,0,.2,0,.4,0,.6s0,.32,0,.47c0,1.25-.06,2.6-.07,3.94,0,.69,0,1.39.06,2.07,0,.37,0,.74,0,1.12s0,.67.06,1a10,10,0,0,1-.24,3.82c0,.22,0,.4.21.43s.45-.16.59-.37l.06-.1,0-.44a20.13,20.13,0,0,0,0-3.14c-.07-.63-.17-1.26-.28-1.87-.06-.37-.13-.76-.18-1.15A20.38,20.38,0,0,1,19,16.41a10.76,10.76,0,0,1,1.79-5.25c-.5.11-.79.59-1.07,1.06a3.41,3.41,0,0,1-.53.74h0a1,1,0,0,1,.07-.78,2.69,2.69,0,0,0,.09-.3,6.74,6.74,0,0,0,.15-1.18v-.06c0-.6,0-.93-.08-1l-.1,0a.12.12,0,0,0-.1,0c-.14.14-.13.64-.12.82a4.64,4.64,0,0,1-.17,2.2h0A9.36,9.36,0,0,0,17.09,11.75Z"/><path class="cls-4" d="M21.53,10.87c.23,0,.47.06.69.1l.5.08.33,0a14.72,14.72,0,0,0,2.49,0,18,18,0,0,0,5.54-1.28C32,9.45,32.87,9,33.73,8.65a27.34,27.34,0,0,1,8.21-2.73h.11a.83.83,0,0,0,.66-.27c-.09-.31-.67-.55-1.06-.71l-.2-.08A12,12,0,0,0,40,4.3a13,13,0,0,0-2.49-.49l-.59,0a29.2,29.2,0,0,0-6.71.49A19.66,19.66,0,0,0,28,4.82c-.39.12-.8.24-1.2.34h0a13.64,13.64,0,0,0-2.93,1,6.83,6.83,0,0,0-3.53,4.21,1.63,1.63,0,0,1,.72-.59h0a26.61,26.61,0,0,1,4.73-2,29.29,29.29,0,0,1,5.08-1.13h0a0,0,0,0,1,0,0A2.63,2.63,0,0,1,29.75,7l-.38.07-.52.12L28,7.44a26.94,26.94,0,0,0-2.9.84,25.18,25.18,0,0,0-2.72,1.17l-.25.13A3.39,3.39,0,0,0,20.35,11,2.6,2.6,0,0,1,21.53,10.87Z"/><path class="cls-4" d="M17.45,3.1a2.32,2.32,0,0,1,0-.6c0-.45.21-1.19.16-1.26-.16.09-.32.6-.42.93,0,.11-.06.21-.08.26L17,2.68a6.1,6.1,0,0,0-.28.77,4.18,4.18,0,0,0,0,1.82,11.43,11.43,0,0,0,1.91,3.84l.31.47A7,7,0,0,0,18,5.28,6.91,6.91,0,0,1,17.45,3.1Z"/><path class="cls-4" d="M1.14,4.56l.15.22a17.09,17.09,0,0,0,1.25,1.7A9.88,9.88,0,0,0,6,8.84,15.56,15.56,0,0,0,10.37,10l.72.08a22.25,22.25,0,0,1,3.67.6,12.52,12.52,0,0,1,3.06,1A15.07,15.07,0,0,0,14.38,9c-.65-.39-1.33-.72-2-1.06l-.46-.19A3,3,0,0,1,10.64,7a0,0,0,0,1,0,0h0a21.52,21.52,0,0,1,3.91,1.84A20.16,20.16,0,0,1,18,11.47a4,4,0,0,0-1-1.81l-.2-.26A8.41,8.41,0,0,0,15.2,7.74a16.2,16.2,0,0,0-4.31-2.59A25.66,25.66,0,0,0,5.6,4L5.33,4a21.18,21.18,0,0,1-2.52-.56l-.66-.21A7.09,7.09,0,0,0,.69,2.86H.33C.23,3.26.82,4.11,1.14,4.56Z"/><path class="cls-5" d="M19.27,4.13a6.09,6.09,0,0,0-.68-1.39,5.61,5.61,0,0,1-.33-.62,4.71,4.71,0,0,0-.38-.7c-.66,1.15.14,3.18.51,4a8.8,8.8,0,0,1,.67,2,6,6,0,0,1,.09,1,5.76,5.76,0,0,0,.09,1,4.38,4.38,0,0,0,.47-1.63l0-.1A7.76,7.76,0,0,0,19.27,4.13Z"/><path class="cls-6" d="M18.58,16.07h-.76a18.51,18.51,0,0,0-9.65,3.26A10.06,10.06,0,0,0,4.6,24.52a4.87,4.87,0,0,0,.33,4.37c1.31,1.77,4,1.9,6,1.81,1.82-.08,3.6-.71,5.42-.66a8.7,8.7,0,0,1,3.55.77,20.37,20.37,0,0,0,2.35,1c.26.09.79.31,1,0s-.27-1.18-.46-1.46a4.94,4.94,0,0,0-1.64-1.43c-2.78-1.58-5.74-1-8.75-.86a9.07,9.07,0,0,1-3.75-.5c-.51-.2-1.36-.61-1.43-1.24a9.41,9.41,0,0,0,1,.8,7.13,7.13,0,0,0,2.67.56,22.29,22.29,0,0,0,3.9-.09,12.09,12.09,0,0,1,3.5-.07,7.12,7.12,0,0,0-.84-5.32,7.7,7.7,0,0,0-2.58-2.44,6,6,0,0,0-3.21-.39c.47-.53,2.2-.31,2.77-.11a6.07,6.07,0,0,1,1.65,1.14,7.06,7.06,0,0,1,2.44,3.44q.09.31.17.64c0-.16,0-.33,0-.51,0-.53,0-1.07-.06-1.59,0-.32,0-.65,0-1,0-1.45-.06-2.57,0-3.64v-.47C18.56,16.89,18.57,16.48,18.58,16.07Z"/><path class="cls-6" d="M24,31.29c-.12-.85,0-2.16-.45-2.9s-1.27-.68-2-.87l.64-.09a1.46,1.46,0,0,1,.94.14,2.94,2.94,0,0,1,.63-2.64,3.07,3.07,0,0,0,.46-.59A10.5,10.5,0,0,0,24.38,23c.1-.41.78-2.77,1.24-2.73.14,0,.73,1.23.85,1.38a5.49,5.49,0,0,0,1.07,1c-.85.18-1.69-1.43-1.93-2a6.77,6.77,0,0,0-.31,2.41c0,.16.44,2.12.61,2.06-.32.12-.75-1.11-.8-1.3A13.06,13.06,0,0,1,25,22c-.13.52-.29,1-.39,1.56a3.53,3.53,0,0,1-.15,1c-.05.08-.33.21-.41.29a3.14,3.14,0,0,0-.63,1.06c-.49,1.3.48,2.28.65,3.54a5.17,5.17,0,0,0,.38,2.13c.21.31.92.8,1.27.37.12-.15-.33-.57-.07-.75s.82.29.89.4c.3.49-.7.3-1,.69,1.35.5,2-.32,3.2-.58a5.58,5.58,0,0,0,2.36-.93,5.49,5.49,0,0,0,1-.79,11.63,11.63,0,0,0,.54-1.06c.54-.82,1.84-1,2.51-1.73a12.09,12.09,0,0,0-2.57.78,2.5,2.5,0,0,0-.81.47,2,2,0,0,1,.38-.55,3.3,3.3,0,0,1,.89-.51,15,15,0,0,1,2.3-.52,8.33,8.33,0,0,0-2.65-.7c.74-1.36-.67-3.14-1.63-4.05a20.65,20.65,0,0,0-3.46-2.36c-1.51-.94-2.81-2.47-4.5-3.06a12.8,12.8,0,0,0-3.86-.59,22.07,22.07,0,0,0,.34,5.46c.14.9.24,1.66.32,2.36a10.25,10.25,0,0,1,0,1.83,3.42,3.42,0,0,0,0,.41c0,.06,0,.12,0,.18A10.2,10.2,0,0,1,21.28,24c.16.18-.45,1.24-.54,1.43-.17.36-.35.71-.53,1.07s-.36.6-.49.92v0h0a.79.79,0,0,0-.05.28c0,.39.4.36.8.51a6.41,6.41,0,0,1,1.53.84,4.21,4.21,0,0,1,1.12,1.29C23.36,30.83,23.42,31.22,24,31.29Z"/><path class="cls-7" d="M26.77,7.61"/><path class="cls-5" d="M30.22,6.72a29,29,0,0,0-4.41,1,26.61,26.61,0,0,0-4.73,2h0a1.63,1.63,0,0,0-.72.59,7,7,0,0,1,1.19-2.31C21,8.74,27.2,6.65,30.22,6.72Z"/><path class="cls-5" d="M15.87,8.32a10.48,10.48,0,0,1,.92,1.08l.2.26a4,4,0,0,1,1,1.81,20.19,20.19,0,0,0-1.92-1.6c.13,0,.25.1.28,0a1,1,0,0,0-.07-.63Z"/><path class="cls-5" d="M37.27,7.13c-1.21.46-2.39,1-3.54,1.52-.86.39-1.76.8-2.65,1.17a18,18,0,0,1-5.54,1.28,14.72,14.72,0,0,1-2.49,0l-.33,0-.5-.08c-.23,0-.46-.08-.69-.1a2.6,2.6,0,0,0-1.18.11,3.39,3.39,0,0,1,1.76-1.41l.25-.13.75-.36a.56.56,0,0,0,0,.39c.1.31.46.44.78.5,2,.39,4.12-.36,6.1-1A61.58,61.58,0,0,1,37.27,7.13Z"/><path class="cls-5" d="M17.83,11.73a8.67,8.67,0,0,0-1.45-1.46c-1.39-.67-5-.81-6.44-1.12C6.38,8.42,4.7,8,2.15,6l.39.48A9.88,9.88,0,0,0,6,8.84,15.56,15.56,0,0,0,10.37,10l.72.08a22.25,22.25,0,0,1,3.67.6l1.66.46C16.89,11.31,17.37,11.51,17.83,11.73Z"/><path class="cls-8" d="M18.57,20.75q0,.31,0,.65c0,.32,0,.65,0,1,0,.52,0,1.06.06,1.59,0,.18,0,.35,0,.51q-.07-.32-.17-.64a6.37,6.37,0,0,0-1.29-2.32l.49.37a.49.49,0,0,0,.43.14c.15-.06.21-.24.24-.41Z"/><path class="cls-8" d="M7.28,26.43a9.73,9.73,0,0,0,1,.67,7.13,7.13,0,0,0,2.67.56,20.34,20.34,0,0,0,3.46,0A18.6,18.6,0,0,1,7.28,26.43Z"/><path class="cls-8" d="M23,26.42a3.27,3.27,0,0,0,.18,1.27.89.89,0,0,0-.68-.22C22.85,27.17,22.81,26.79,23,26.42Z"/><path class="cls-8" d="M19.92,23.85v.05a10.25,10.25,0,0,1,0,1.83,3.42,3.42,0,0,0,0,.41c0,.06,0,.12,0,.18.25-.52.56-1.15.81-1.63l-.1.08a.23.23,0,0,1-.18.06.24.24,0,0,1-.12-.1A3,3,0,0,1,19.92,23.85Z"/><path class="cls-8" d="M23,26.44a3.46,3.46,0,0,1,.7-1.52,3.07,3.07,0,0,0,.46-.59,7.27,7.27,0,0,0,.17-1.23,5.43,5.43,0,0,1-1.87.9,6.23,6.23,0,0,0-1.42.78c-.14.28-.28.55-.32.63-.16.34-.33.67-.5,1l.39-.08a1.5,1.5,0,0,1,.5,0,16.75,16.75,0,0,1,1.89.15Z"/><path class="cls-8" d="M7.59,23.8a21.89,21.89,0,0,0,3.21.45h.11l.7,0a19.87,19.87,0,0,1,2.62.26,7,7,0,0,1,2.78,1c.93.63,1.25,1,1.38,1.33,0-.17.19-.53.2-.7A7.83,7.83,0,0,0,17,23.47a9.18,9.18,0,0,0-2.42-1.93A16.54,16.54,0,0,0,8.5,19.37l-.29,0,0,0a9.58,9.58,0,0,0-3,3.75A13.61,13.61,0,0,0,7.59,23.8Z"/><path class="cls-9" d="M42.86,5.34a4.57,4.57,0,0,0-1.56-.82L41,4.4a11.66,11.66,0,0,0-1.87-.56,13.6,13.6,0,0,0-1.55-.24,18.29,18.29,0,0,0-2.48-.06A39,39,0,0,0,31,3.9a24.66,24.66,0,0,0-3.06.71l-1,.28A17.2,17.2,0,0,0,23.79,6,6.76,6.76,0,0,0,20,10.54c0,.14-.06.27-.08.41a4,4,0,0,1-.36,1.21,4.13,4.13,0,0,1,.07-.9,5.35,5.35,0,0,0,.08-.71c0-.19,0-.39,0-.58a4.56,4.56,0,0,1,0-1,10.33,10.33,0,0,0,.14-3.4,6.89,6.89,0,0,0-.81-2.47l-.16-.29a7.78,7.78,0,0,0-1.26-2h0c-.22,0-.45.59-.56.93,0,.1-.13.33-.16.39a7,7,0,0,0-.49,1.51,4.77,4.77,0,0,0,.35,2.86A24.44,24.44,0,0,0,18,8.75l.36.64.13.22a3.39,3.39,0,0,1,.46,1,2.62,2.62,0,0,1-.16,1.58c-.26-.08-.4-.5-.52-.83a3.11,3.11,0,0,0-.11-.3,10.68,10.68,0,0,0-.87-1.48,11,11,0,0,0-2.36-2.45A15.21,15.21,0,0,0,8.73,4.26c-.9-.19-1.81-.34-2.69-.48A36.38,36.38,0,0,1,2.14,3l-.52-.15A8.4,8.4,0,0,0,.53,2.57l-.14,0c-.19,0-.31,0-.36.08s0,.32.14.65A12.48,12.48,0,0,0,2,6.24,10.54,10.54,0,0,0,7.49,9.6a19.25,19.25,0,0,0,3.28.69h.11l.71.07a17.41,17.41,0,0,1,2.68.43,7.11,7.11,0,0,1,2.8,1.27c.76.61,1.62,1.3,1.56,2.43,0,.43,0,.86,0,1.29a15.61,15.61,0,0,0-4.53.57A19.08,19.08,0,0,0,7.27,19.5a10.34,10.34,0,0,0-3.48,6.65C3.57,29.27,6.27,31,9.11,31.07a19.65,19.65,0,0,0,3.27-.15,18.86,18.86,0,0,1,4.08-.55,9.29,9.29,0,0,1,3.47.84,12.3,12.3,0,0,0,2.33.92,1.81,1.81,0,0,0,1,.07c.47-.17.25-.31.35-.68a2.16,2.16,0,0,1,.84.41,4,4,0,0,0,1.06.63,2.43,2.43,0,0,0,2.24-.2,6.18,6.18,0,0,1,1.75-.56,5.27,5.27,0,0,0,2-1,5.25,5.25,0,0,0,.83-.68c.36-.41.51-1,.88-1.39s1.13-.56,1.62-.87c.25-.16,1.7-1,1.08-1.24l-2.05-.74c-.3-.11-.4,0-.54-.3a4.34,4.34,0,0,1-.09-.81,5.38,5.38,0,0,0-1.4-2.5,16.11,16.11,0,0,0-3.64-2.57c-1.3-.79-2.35-1.9-3.63-2.7a8.49,8.49,0,0,0-3.38-1c-.6-.09-1.22-.15-1.83-.19q0-.41.13-.82c0-.09,0-.18.07-.26s0-.17.07-.26a6.25,6.25,0,0,1,.8-1.88l.16-.3a3.92,3.92,0,0,0,.18-.39c.18-.42.34-.82.83-.8l.31,0c.27,0,.54.07.8.11s.54.09.82.11l.41,0a17.77,17.77,0,0,0,4.86-.58,24.82,24.82,0,0,0,4.59-1.71A43.89,43.89,0,0,1,38.49,6.9a15,15,0,0,1,2.78-.58h0c1-.14,1.59-.34,1.69-.61A.35.35,0,0,0,42.86,5.34Zm-24,4.23-.31-.47a11.43,11.43,0,0,1-1.91-3.84,4.18,4.18,0,0,1,0-1.82A6.1,6.1,0,0,1,17,2.68l.11-.25c0-.05.05-.15.08-.26.1-.34.26-.84.42-.93,0,.07-.12.81-.16,1.26a2.32,2.32,0,0,0,0,.6A6.91,6.91,0,0,0,18,5.28,7,7,0,0,1,18.87,9.58Zm.29-1.22a6,6,0,0,0-.09-1,8.8,8.8,0,0,0-.67-2c-.38-.82-1.17-2.85-.51-4a4.71,4.71,0,0,1,.38.7,5.61,5.61,0,0,0,.33.62,6.09,6.09,0,0,1,.68,1.39,7.76,7.76,0,0,1,.45,3.44l0,.1a4.38,4.38,0,0,1-.47,1.63A5.76,5.76,0,0,1,19.15,8.35Zm-8.06,1.74L10.37,10A15.56,15.56,0,0,1,6,8.84,9.88,9.88,0,0,1,2.54,6.48a17.09,17.09,0,0,1-1.25-1.7l-.15-.22C.82,4.11.23,3.26.33,2.85H.69a7.09,7.09,0,0,1,1.45.37l.66.21A21.18,21.18,0,0,0,5.33,4L5.6,4a25.66,25.66,0,0,1,5.29,1.12A16.2,16.2,0,0,1,15.2,7.74,8.41,8.41,0,0,1,16.79,9.4l.2.26a4,4,0,0,1,1,1.81,20.16,20.16,0,0,0-3.42-2.61A21.52,21.52,0,0,0,10.65,7h0a0,0,0,0,0,0,0,3,3,0,0,0,1.24.71l.46.19c.7.34,1.39.67,2,1.06a15.07,15.07,0,0,1,3.45,2.72,12.52,12.52,0,0,0-3.06-1A22.25,22.25,0,0,0,11.09,10.09ZM23.23,31.78c-.21.29-.74.07-1,0a20.37,20.37,0,0,1-2.35-1A8.7,8.7,0,0,0,16.32,30c-1.82-.05-3.6.58-5.42.66-2,.09-4.67,0-6-1.81a4.87,4.87,0,0,1-.33-4.37,10.06,10.06,0,0,1,3.58-5.17,18.51,18.51,0,0,1,9.65-3.26h.76c0,.41,0,.82,0,1.22v.47c0,1.07,0,2.19,0,3.64,0,.32,0,.65,0,1,0,.52,0,1.06.06,1.59,0,.18,0,.35,0,.51q-.07-.32-.17-.64a7.06,7.06,0,0,0-2.44-3.44,6.07,6.07,0,0,0-1.65-1.14c-.57-.21-2.3-.43-2.77.11a6,6,0,0,1,3.21.39,7.7,7.7,0,0,1,2.58,2.44,7.12,7.12,0,0,1,.84,5.32,12.09,12.09,0,0,0-3.5.07,22.29,22.29,0,0,1-3.9.09,7.13,7.13,0,0,1-2.67-.56,9.41,9.41,0,0,1-1-.8c.07.64.92,1,1.43,1.24a9.07,9.07,0,0,0,3.75.5c3-.15,6-.72,8.75.86a4.94,4.94,0,0,1,1.64,1.43C23,30.6,23.48,31.43,23.23,31.78Zm-.11-15.11c1.69.59,3,2.12,4.5,3.06a20.65,20.65,0,0,1,3.46,2.36c1,.91,2.37,2.69,1.63,4.05a8.33,8.33,0,0,1,2.65.7,15,15,0,0,0-2.3.52,3.3,3.3,0,0,0-.89.51,2,2,0,0,0-.38.55,2.5,2.5,0,0,1,.81-.47,12.09,12.09,0,0,1,2.57-.78c-.67.76-2,.9-2.51,1.73A11.63,11.63,0,0,1,32.12,30a5.49,5.49,0,0,1-1,.79,5.58,5.58,0,0,1-2.36.93c-1.24.26-1.85,1.08-3.2.58.33-.39,1.33-.2,1-.69-.07-.11-.73-.51-.89-.4s.18.61.07.75c-.34.43-1.06-.06-1.27-.37a5.17,5.17,0,0,1-.38-2.13c-.17-1.26-1.14-2.24-.65-3.54a3.14,3.14,0,0,1,.63-1.06c.09-.09.36-.21.41-.29a3.53,3.53,0,0,0,.15-1c.09-.53.26-1,.39-1.56a13.06,13.06,0,0,0,.09,1.85c0,.19.48,1.42.8,1.3-.17.06-.59-1.9-.61-2.06a6.77,6.77,0,0,1,.31-2.41c.24.56,1.07,2.17,1.93,2a5.49,5.49,0,0,1-1.07-1c-.11-.15-.7-1.37-.85-1.38-.46,0-1.14,2.32-1.24,2.73a10.5,10.5,0,0,1-.19,1.31,3.07,3.07,0,0,1-.46.59,2.94,2.94,0,0,0-.63,2.64,1.46,1.46,0,0,0-.94-.14l-.64.09c.76.19,1.55.12,2,.87s.33,2.05.45,2.9c-.59-.07-.65-.46-.9-.91A4.21,4.21,0,0,0,22,29.09a6.41,6.41,0,0,0-1.53-.84c-.39-.16-.78-.13-.8-.51a.79.79,0,0,1,.05-.28h0v0c.12-.33.38-.71.49-.92s.36-.71.53-1.07c.09-.18.7-1.25.54-1.43A10.2,10.2,0,0,0,20,26.32c0-.06,0-.12,0-.18a3.42,3.42,0,0,1,0-.41,10.25,10.25,0,0,0,0-1.83c-.08-.71-.18-1.46-.32-2.36a22.07,22.07,0,0,1-.34-5.46A12.8,12.8,0,0,1,23.12,16.67ZM19,16.41a20.38,20.38,0,0,0,.11,4.16c.06.38.12.77.18,1.15.1.61.21,1.24.28,1.87a20.13,20.13,0,0,1,0,3.14l0,.44-.06.1c-.14.21-.3.42-.59.37s-.23-.21-.21-.43A10,10,0,0,0,19,23.37c0-.36,0-.7-.06-1s0-.75,0-1.12c0-.68-.07-1.38-.06-2.07,0-1.34,0-2.69.07-3.94,0-.16,0-.32,0-.47s0-.4,0-.6c0-.93-1-1.8-1.82-2.39a9.36,9.36,0,0,1,1.82.94h0a4.64,4.64,0,0,0,.17-2.2c0-.18,0-.68.12-.82a.12.12,0,0,1,.1,0l.1,0c.07,0,.1.37.08,1v.06a6.74,6.74,0,0,1-.15,1.18,2.69,2.69,0,0,1-.09.3,1,1,0,0,0-.07.78h0a3.41,3.41,0,0,0,.53-.74c.28-.47.58-1,1.07-1.06A10.76,10.76,0,0,0,19,16.41Zm23-10.5h-.11a27.34,27.34,0,0,0-8.21,2.73c-.86.39-1.76.8-2.65,1.17a18,18,0,0,1-5.54,1.28,14.72,14.72,0,0,1-2.49,0l-.33,0-.5-.08c-.23,0-.46-.08-.69-.1a2.6,2.6,0,0,0-1.18.11,3.39,3.39,0,0,1,1.76-1.41l.25-.13a25.18,25.18,0,0,1,2.72-1.17A26.94,26.94,0,0,1,28,7.44l.87-.21.52-.12L29.75,7a2.63,2.63,0,0,0,1.15-.39,0,0,0,0,0,0,0h0a29.29,29.29,0,0,0-5.08,1.13,26.61,26.61,0,0,0-4.73,2h0a1.63,1.63,0,0,0-.72.59,6.83,6.83,0,0,1,3.53-4.21,13.64,13.64,0,0,1,2.93-1h0c.4-.11.81-.23,1.2-.34a19.66,19.66,0,0,1,2.15-.56,29.2,29.2,0,0,1,6.71-.49l.59,0A13,13,0,0,1,40,4.3a12,12,0,0,1,1.47.55l.2.08c.39.16,1,.4,1.06.71A.83.83,0,0,1,42.05,5.91Z"/><path class="cls-8" d="M30.14,21.31h0a8.44,8.44,0,0,0-3.64.39,5.63,5.63,0,0,0,1,1c-.85.18-1.69-1.43-1.93-2a6.77,6.77,0,0,0-.31,2.41c0,.16.44,2.12.61,2.06-.32.12-.75-1.11-.8-1.3A13.06,13.06,0,0,1,25,22c-.13.52-.29,1-.39,1.56a3.53,3.53,0,0,1-.15,1c-.05.08-.33.21-.41.29a3.14,3.14,0,0,0-.63,1.06,2.07,2.07,0,0,0-.13.61c1.62.35,3,1.75,4.46,2.53a10.74,10.74,0,0,0,3.88,1.34,2.35,2.35,0,0,0,.47-.41,11.63,11.63,0,0,0,.54-1.06c.54-.82,1.84-1,2.51-1.73a12.09,12.09,0,0,0-2.57.78,2.5,2.5,0,0,0-.81.47,2,2,0,0,1,.38-.55,3.3,3.3,0,0,1,.89-.51,15,15,0,0,1,2.3-.52,8.33,8.33,0,0,0-2.65-.7c.74-1.36-.67-3.14-1.63-4.05a9,9,0,0,0-1-.78"/><path class="cls-9" d="M26.87,27.45a3.21,3.21,0,0,0-1.19-.76,3.33,3.33,0,0,0,.69.89c.44.43.16.58.22,1.15C26.68,28.44,27,27.73,26.87,27.45Z"/><path class="cls-9" d="M28.44,29.88c.62-.45,1.2-.16,1.8.06-.18-.13-.81-.74-1-.73S28.58,29.69,28.44,29.88Z"/></g></g></svg>