<svg xmlns="http://www.w3.org/2000/svg" viewBox="0 0 272.65 128.89"><defs><style>.a{fill:#bacca2;}</style></defs><title>younnav</title><path class="a" d="M138.53,51.94c-2.3-12.65-9-21.09-22.3-23-11.75-1.64-20.3,5.13-27.82,13.24-7.82,8.44-9.29,21.1-11.07,32-1.74,10.63-3.91,22-1.74,32.79,2.52,12.5,11.84,20.33,23.57,24.31,12.91,4.38,21.43-2.33,28.89-12.65C141.6,99.91,141.5,74.08,138.53,51.94Zm-30,49.66c-10.18,0-9.75-18.86-8.59-25.53.64-3.72,4.78-19.39,10.92-17.61C119,60.84,118.33,101.61,108.55,101.61Z" transform="translate(-12.21 -22.1)"/><path class="a" d="M76.81,32.49c-2.62-1-14.58-.36-18.74,5.65-2.72,3.93-3.25,9-4.42,13.51-.82,3.12-1.8,10.22-4.44,12.3-6.48-8.12-10.52-18-14.42-27.55-1.34-3.26-1.81-6.78-4.76-9-2.48-1.88-13.4-7-15.92-4.66-4,3.76-.72,19.17,1,23.73C19,56.72,26.66,64.43,33,73.07c9.54,13,5.75,23.37,1.23,37.87-2.18,7-2.84,8.42-4.8,15.46-1,3.67-3,8.55-.38,12.11,3.46,4.62,14,12.41,19.09,12.47,8.41.11,9.54-6.6,10.47-14.28,1.55-12.71,4.94-24.87,6.72-37.41h.12c1.05-5,.73-6.66,2.41-15.15,1.84-9.29,4-19,5.9-28.3C74.36,52.85,79.94,34.06,76.81,32.49Z" transform="translate(-12.21 -22.1)"/><path class="a" d="M210.67,79.05c-1.65-17.53.78-31.48-8.78-33.81-14.24-3.47-8.49,10.27-7.76,17,.91,8.33,2.07,17.18,2.2,25.51.13,8.14-4.09,35.55-14.2,33.94-8.55-1.36-7.59-19.22-7.69-25.54-.19-11.75.11-23.52,0-35.27v0c0-4.9.7-10.21.14-15.09-.49-4.3-3.21-4.58-9-6.52-5.43-1.83-8.29-3.27-13.13-1.78-4,1.23-3.52,13-3.66,16.06-1.07,22.45-1.89,42.27,1.75,63.57C153.94,137,173.07,151,192,139.69,213.06,127,210.16,100.67,210.67,79.05Z" transform="translate(-12.21 -22.1)"/><path class="a" d="M237.72,94.88c3.83,15.41,13.62,29.51,21.82,43.37,3.78,6.39,8.93,9.58,15.6,4.3,5.45-4.31,10.78-5.72,9.54-16.05-1.17-9.3-3.82-18.82-4.52-28.16-.49-6.61-.2-13.51-.15-20.09.09-11-.53-22,.2-33,.48-7.22.55-19.32-7.59-14.83-5.92,3.27-11.09,2.29-12,9.27-1.73,12.82,2.77,24.73-1,37.6-11-4-19.45-42.81-34.16-31-7.19,5.77-6.12,16.08-5.92,23.88.26,9.8-.76,19.62-.83,29.49-.07,10.27-1.32,20-2.23,30.17-.62,7-1.34,16.43,7.06,18.19,13.26,2.77,12.86-12.29,13.15-21,.15-4.49,0-9,.1-13.51.08-3.15-.07-6.21.12-9.35.14-2.24.23-7.14.78-9.22" transform="translate(-12.21 -22.1)"/></svg>